<svg width="590" height="139" viewBox="0 0 590 139" fill="none" xmlns="http://www.w3.org/2000/svg">
<path d="M378.417 0.800525C379.132 0.798433 379.847 0.796341 380.584 0.794186C382.092 0.791015 383.601 0.789529 385.109 0.789631C387.397 0.788259 389.684 0.77684 391.972 0.764926C393.445 0.763081 394.917 0.761835 396.389 0.761244C397.401 0.75447 397.401 0.75447 398.434 0.747559C405.047 0.767206 411.217 1.41466 417.104 4.55925C417.734 4.87096 417.734 4.87096 418.376 5.18898C420.51 6.28724 421.76 7.06369 423.301 8.96611C424.823 10.4783 424.823 10.4783 426.385 10.3279C426.929 10.2533 427.473 10.1786 428.034 10.1017C432.245 9.62764 436.384 9.68184 440.617 9.75419C441.849 9.76694 443.082 9.77967 444.315 9.79128C447.322 9.8198 450.329 9.85366 453.337 9.90764C455.848 9.95213 458.359 9.97132 460.87 9.98988C461.644 10.0081 462.418 10.0263 463.216 10.045C467.44 10.134 467.44 10.134 471.056 8.19706C471.434 7.65769 471.812 7.11831 472.201 6.56259C477.071 1.84109 483.495 1.15452 489.974 1.2228C490.687 1.22188 491.399 1.22097 492.133 1.22003C493.63 1.22106 495.127 1.22826 496.624 1.24136C498.896 1.25956 501.166 1.2543 503.437 1.24612C504.901 1.25004 506.365 1.25532 507.829 1.26208C508.832 1.25931 508.832 1.25931 509.855 1.25649C519.303 1.37331 528.536 4.31085 535.623 10.7264C540.175 15.5767 540.506 21.3525 540.472 27.7352C540.469 28.8768 540.469 28.8768 540.465 30.0416C540.261 41.5827 537.816 52.9021 535.324 64.1363C534.306 68.7947 533.752 73.4742 533.236 78.2116C533.777 77.9888 534.318 77.7661 534.876 77.5366C542.259 74.7475 549.367 74.6052 557.194 74.6939C559.321 74.7157 561.448 74.7068 563.575 74.6947C564.945 74.699 566.314 74.7051 567.684 74.7131C568.311 74.71 568.938 74.7069 569.585 74.7037C575.382 74.8003 580.041 76.5806 584.206 80.6696C589.621 86.3327 589.835 91.7527 589.729 99.241C589.709 100.959 589.729 102.673 589.753 104.391C589.751 105.494 589.746 106.597 589.739 107.7C589.746 108.207 589.754 108.714 589.762 109.237C589.678 112.642 588.832 114.406 586.474 116.865C576.131 126.494 560.629 130.355 547.197 133.402C546.395 133.584 545.593 133.766 544.767 133.954C542.397 134.472 540.024 134.951 537.641 135.405C536.958 135.536 536.276 135.667 535.572 135.802C528.008 137.026 520.362 136.874 512.72 136.86C510.316 136.858 507.913 136.873 505.509 136.889C481.419 136.953 481.419 136.953 472.83 128.767C469.055 124.679 469.055 124.679 469.055 122.207C468.432 122.207 467.809 122.207 467.167 122.207C466.96 122.829 466.752 123.451 466.538 124.092C465.085 125.114 463.663 126.029 462.133 126.92C461.701 127.174 461.268 127.429 460.822 127.69C457.762 129.45 454.867 130.769 451.437 131.634C450.741 131.838 450.045 132.042 449.328 132.253C440.648 134.73 432.196 135.601 423.183 135.594C422.318 135.597 421.452 135.599 420.587 135.602C418.79 135.607 416.993 135.607 415.195 135.603C413.375 135.601 411.556 135.605 409.736 135.616C390.417 135.737 390.417 135.737 382.222 133.52C381.689 133.388 381.156 133.256 380.607 133.121C375.695 131.844 371.244 130.238 367.12 127.235C366.777 127.724 366.777 127.724 366.427 128.224C363.109 132.821 360.363 135.705 354.536 136.662C352.096 136.846 349.665 136.868 347.219 136.873C346.522 136.877 345.825 136.882 345.107 136.886C343.636 136.892 342.166 136.895 340.695 136.895C338.473 136.898 336.252 136.921 334.031 136.944C316.986 137.03 316.986 137.03 309.467 132.498C307.506 131.539 306.897 131.574 304.775 132.272C303.408 132.927 302.06 133.624 300.739 134.369C295.83 136.676 290.636 136.856 285.286 136.851C284.643 136.854 283.999 136.857 283.336 136.859C281.984 136.863 280.631 136.863 279.278 136.86C277.229 136.858 275.181 136.873 273.132 136.889C259.105 136.932 259.105 136.932 252.923 134.046C251.026 133.414 250.133 133.741 248.196 134.148C247.093 134.209 245.987 134.241 244.882 134.249C244.234 134.255 243.586 134.261 242.919 134.268C242.221 134.27 241.524 134.273 240.806 134.276C240.075 134.279 239.344 134.283 238.591 134.287C237.038 134.293 235.486 134.297 233.934 134.299C231.607 134.305 229.281 134.325 226.954 134.344C197.325 134.476 197.325 134.476 189.049 127.863C188.686 127.578 188.322 127.293 187.948 126.999C184.452 122.46 185.533 114.945 186.188 109.538C186.483 107.47 186.801 105.41 187.162 103.352C186.746 103.352 186.331 103.352 185.903 103.352C185.123 106.886 184.566 110.251 184.645 113.879C184.75 120.585 184.607 128.121 179.903 133.333C174.618 138.288 168.142 138.644 161.216 138.675C160.592 138.679 159.967 138.682 159.324 138.686C158.002 138.692 156.68 138.696 155.358 138.699C153.373 138.705 151.39 138.724 149.405 138.744C139.24 138.797 129.273 138.301 119.834 134.148C118.764 133.681 118.764 133.681 117.671 133.205C115.939 132.192 114.77 131.339 113.542 129.749C113.07 127.706 113.07 127.706 112.913 125.978C114.67 126.248 115.578 126.712 117.045 127.767C119.528 129.453 122.212 130.256 125.065 131.123C125.57 131.287 126.076 131.45 126.597 131.618C133.309 133.705 139.92 133.669 146.891 133.52C147.462 133.509 148.033 133.499 148.621 133.488C152.189 133.271 155.003 132.269 157.588 129.749C160.072 125.083 160.455 120.403 160.459 115.215C160.484 109.569 160.593 103.632 164.647 99.2123C169.92 95.0315 175.481 93.8022 182.049 93.8848C182.482 93.8876 182.915 93.8905 183.362 93.8934C184.419 93.9007 185.475 93.912 186.532 93.9241C186.532 94.3389 186.532 94.7537 186.532 95.1811C187.025 95.2977 187.519 95.4144 188.027 95.5346C189.678 96.4381 189.678 96.4381 190.409 98.3736C191.049 100.902 191.054 103.376 190.971 105.969C190.955 106.943 190.94 107.916 190.925 108.89C190.893 110.407 190.858 111.924 190.816 113.441C190.778 114.918 190.756 116.394 190.735 117.871C190.718 118.322 190.701 118.773 190.684 119.238C190.661 121.514 190.87 122.731 192.113 124.666C198.73 131.138 214.384 129.981 223.059 129.939C229.62 129.767 235.987 128.84 241.275 124.721C241.483 124.306 241.69 123.891 241.904 123.464C242.32 123.464 242.735 123.464 243.163 123.464C243.09 122.376 243.01 121.29 242.927 120.203C242.883 119.598 242.839 118.993 242.794 118.369C242.614 116.571 242.614 116.571 241.921 115.089C241.234 113.3 240.982 111.73 240.749 109.831C239.965 104.423 238.55 99.2244 237.106 93.9634C236.968 93.4532 236.829 92.943 236.686 92.4173C233.923 82.2913 230.819 72.3339 226.262 62.8502C225.39 60.8963 224.706 58.9051 224.011 56.8819C222.735 53.2009 221.165 49.8026 219.338 46.3643C218.623 44.9011 218.623 44.9011 218.623 43.6441C218.208 43.6441 217.792 43.6441 217.364 43.6441C217.121 43.0267 216.878 42.4094 216.627 41.7733C215.428 38.9848 213.842 36.5093 212.173 33.9809C211.863 33.5089 211.553 33.0369 211.233 32.5507C205.027 23.1835 198.124 15.4757 187.176 11.8017C180.229 10.6496 172.791 11.373 166.709 15.0596C165.03 16.3278 163.522 17.6864 161.992 19.1326C161.464 19.6228 161.464 19.6228 160.926 20.1229C146.859 33.2653 136.739 49.8805 129.273 67.5271C128.842 68.497 128.41 69.4661 127.975 70.4339C127.335 71.8676 126.71 73.297 126.127 74.7548C125.764 75.6593 125.388 76.5588 124.974 77.4407C123.539 80.5122 122.365 83.6403 121.289 86.8535C121.155 87.2544 121.02 87.6553 120.881 88.0684C120.175 90.2136 119.592 92.3275 119.205 94.5526C118.79 94.5526 118.375 94.5526 117.947 94.5526C117.869 95.1618 117.791 95.7711 117.711 96.3988C117.318 99.1709 116.696 101.884 116.059 104.609C114.154 103.72 112.525 102.664 110.829 101.427C108.136 99.5159 105.373 97.7977 102.531 96.1238C93.315 90.6898 93.315 90.6898 90.8899 88.2676C90.5974 86.8927 90.5974 86.8927 90.8899 85.1251C92.2078 83.7469 93.4845 82.5674 94.9405 81.3541C100.82 76.1982 107.055 69.327 107.879 61.2421C108.54 49.3984 107.282 38.3666 99.0698 29.1886C85.7155 15.3274 64.5625 10.0101 45.7432 9.612C43.4884 9.57413 41.2338 9.55879 38.9787 9.54797C38.5391 9.54454 38.0995 9.54112 37.6466 9.53759C28.6704 9.48556 21.2203 10.4726 14.2423 16.6579C7.7829 23.6977 5.86977 34.9793 5.86078 44.2112C5.85997 45.0307 5.85916 45.8502 5.85832 46.6945C5.85964 47.1177 5.86096 47.5409 5.86232 47.9768C5.86564 49.2385 5.86204 50.5002 5.85832 51.7618C5.8689 62.5385 6.95538 72.9157 8.61856 83.5538C8.71704 84.1912 8.8155 84.8286 8.91697 85.4853C10.0431 92.7597 11.1854 100.029 12.6692 107.24C12.7809 107.79 12.8927 108.339 13.0078 108.905C14.2324 114.511 16.2576 119.822 18.8042 124.956C19.1538 125.674 19.5033 126.392 19.8635 127.131C21.69 130.204 23.1226 131.894 26.554 133.078C29.3166 133.629 32.0395 133.711 34.8494 133.677C35.5983 133.67 35.5983 133.67 36.3623 133.664C39.7829 133.603 42.9591 133.382 46.2148 132.263C46.7356 132.087 47.2563 131.911 47.7928 131.73C53.5248 129.638 53.5248 129.638 57.5409 125.349C58.3676 119.068 55.7199 114.414 52.3891 109.283C50.2362 105.895 49.229 103.6 49.361 99.5806C50.6194 98.3236 50.6194 98.3236 52.3744 98.1149C56.6311 98.5546 59.994 101.82 62.705 104.96C63.9825 106.694 65.1773 108.459 66.3501 110.265C67.2411 111.601 68.1325 112.936 69.0243 114.272C69.4169 114.873 69.8094 115.474 70.2139 116.093C72.0844 118.833 73.9604 121.171 76.575 123.228C77.2417 123.765 77.2417 123.765 77.9219 124.313C83.2428 127.671 88.301 127.515 94.4109 127.566C95.3897 127.587 95.3897 127.587 96.3883 127.608C96.979 127.612 97.5697 127.617 98.1784 127.621C99.9417 127.902 100.494 128.375 101.587 129.749C100.756 129.749 99.9256 129.749 99.0698 129.749C99.0698 130.163 99.0698 130.578 99.0698 131.006C88.3813 131.901 88.3813 131.901 82.9852 130.809C79.9633 130.285 78.4823 130.254 75.9458 132.027C75.5062 132.382 75.0665 132.737 74.6136 133.102C68.5942 137.793 60.049 138.115 52.7431 138.108C52.071 138.111 51.3988 138.114 50.7064 138.116C49.2956 138.12 47.8849 138.12 46.4741 138.117C44.3327 138.115 42.1918 138.13 40.0504 138.146C38.6707 138.148 37.291 138.148 35.9113 138.147C34.9651 138.156 34.9651 138.156 33.9999 138.165C28.8903 138.132 23.9884 137.472 19.5907 134.737C6.80971 120.784 4.87414 94.9824 2.79822 76.9546C2.74347 76.5464 2.68872 76.1382 2.63231 75.7177C0.100886 55.8198 -1.88919 30.4599 10.8995 13.8272C15.8155 8.43608 22.8344 5.61869 30.0429 5.17898C32.5172 5.11884 34.9898 5.09703 37.4647 5.09446C38.3923 5.0904 39.3199 5.08617 40.2476 5.08178C42.1917 5.07428 44.1358 5.07192 46.08 5.07267C48.0397 5.07277 49.999 5.06419 51.9587 5.04689C74.5057 4.85087 101.308 6.27489 118.572 22.8224C126.533 30.7624 130.129 39.7458 132.419 50.5576C132.664 50.1225 132.909 49.6875 133.161 49.2392C137.583 41.5146 142.399 34.1133 148.149 27.3031C148.739 26.5895 149.329 25.8759 149.919 25.1623C156.532 17.2301 163.896 9.03673 174.577 7.19109C177.054 7.01032 179.522 6.99993 182.005 7.00205C182.709 6.99936 183.413 6.99667 184.139 6.99389C185.623 6.99029 187.107 6.98996 188.591 6.99269C190.847 6.99468 193.102 6.97992 195.359 6.964C196.806 6.96257 198.254 6.96213 199.702 6.96277C200.369 6.95698 201.037 6.95119 201.724 6.94523C211.978 7.00811 218.382 11.5275 225.544 18.5041C228.363 21.4563 230.742 24.6041 233.095 27.9316C233.37 26.8622 233.37 26.8622 233.651 25.7711C235.593 18.518 237.466 13.3929 244.104 9.27545C248.875 6.76985 253.824 5.25034 259.219 5.19435C259.9 5.18628 260.581 5.17821 261.282 5.1699C262.379 5.16294 262.379 5.16294 263.497 5.15583C264.637 5.14822 264.637 5.14822 265.799 5.14046C267.408 5.13177 269.016 5.12503 270.625 5.12008C272.26 5.11285 273.896 5.10002 275.532 5.08141C277.905 5.05444 280.277 5.04441 282.649 5.03799C283.371 5.02699 284.093 5.01598 284.837 5.00464C290.651 5.02003 296.051 6.02513 300.894 9.39084C301.906 9.8575 301.906 9.8575 302.939 10.3336C305.094 9.46073 305.094 9.46073 306.526 8.58834C312.989 5.1552 320.823 5.66033 327.915 5.7228C329.719 5.73768 331.523 5.73571 333.328 5.73155C339.699 5.74154 345.962 5.80311 352.134 7.58851C353.337 7.95911 353.337 7.95911 354.519 7.14445C354.952 6.80984 355.386 6.47524 355.834 6.1305C362.787 1.2182 370.175 0.809005 378.417 0.800525ZM353.435 13.2404C346.149 23.2011 346.183 36.1782 345.727 48.0436C345.555 47.1321 345.555 47.1321 345.38 46.2023C344.591 42.0893 343.749 38.0744 342.46 34.084C341.914 32.2041 341.497 30.318 341.083 28.4059C339.61 21.7 338.004 15.5162 331.884 11.5906C324.978 9.29146 314.686 8.93724 308.069 12.0497C304.772 13.9922 302.007 16.2196 300.422 19.7611C300.126 22.0425 300.125 24.2981 300.147 26.596C300.149 27.2456 300.151 27.8952 300.153 28.5645C300.236 33.1524 300.976 36.856 302.379 41.2185C303.511 46.1211 303.122 51.2134 302.939 56.2141C302.005 56.5252 302.005 56.5252 301.051 56.8426C300.197 57.8773 299.357 58.9248 298.535 59.9851C297.912 60.2962 297.912 60.2962 297.276 60.6136C297.276 61.0284 297.276 61.4432 297.276 61.8706C293.372 63.2887 289.453 63.7138 285.321 63.1276C283.25 61.5966 282.333 60.223 280.916 58.0996C280.638 55.6737 280.712 53.2332 280.72 50.7933C280.709 50.1297 280.699 49.4662 280.689 48.7826C280.686 44.5652 281.307 41.2742 282.804 37.3591C283.931 33.7742 284.275 30.4229 284.259 26.6746C284.269 26.1998 284.279 25.7251 284.29 25.2359C284.293 21.3633 283.655 17.812 281.16 14.7405C275.105 10.0276 270.094 9.56926 262.59 9.50869C261.852 9.49046 261.114 9.47223 260.353 9.45345C253.244 9.40216 247.17 11.0279 241.904 15.9901C234.771 24.4572 236.576 42.1943 236.595 52.4824C236.595 53.1671 236.595 53.8518 236.595 54.5572C236.617 64.8485 236.771 75.1233 239.387 85.1251C239.549 86.3668 239.694 87.6109 239.82 88.8568C241.459 100.775 245.675 123.101 255.747 131.006C262.64 134.511 270.81 134.049 278.085 131.83C281.36 130.608 283.998 128.95 286.579 126.606C287.262 126.043 287.262 126.043 287.958 125.469C289.847 123.183 289.392 120.95 289.305 118.099C288.951 114.413 288.079 110.902 286.53 107.533C285.778 105.371 285.737 103.476 285.714 101.191C285.696 100.388 285.678 99.5853 285.66 98.7581C285.997 96.0652 286.771 94.7597 288.467 92.6671C292.751 89.3892 296.421 88.6552 301.681 88.2676C301.681 88.6824 301.681 89.0972 301.681 89.5246C302.927 89.9394 304.172 90.3542 305.456 90.7816C306.916 97.2494 306.331 103.79 303.527 109.823C302.098 113.956 301.948 119.769 303.615 123.869C308.223 129.746 317.221 132.565 324.333 133.52C329.562 133.952 335.723 134.209 339.979 130.653C343.065 127.274 344.302 124.16 345.294 119.732C345.448 119.078 345.602 118.425 345.761 117.752C348.182 106.841 348.5 95.6337 348.243 84.4966C348.659 84.4966 349.074 84.4966 349.502 84.4966C349.567 85.2873 349.632 86.078 349.699 86.8927C350.098 90.41 350.992 93.6853 352.019 97.0666C352.232 97.8087 352.445 98.5508 352.665 99.3154C356.226 110.954 363.655 121.425 374.514 127.392C383.605 131.521 393.597 132.502 403.458 132.459C404.286 132.456 405.114 132.454 405.967 132.451C412.109 132.38 417.795 131.897 423.751 130.377C424.445 130.209 425.139 130.042 425.855 129.869C438.814 126.334 449.978 118.766 456.706 107.005C458.281 104.172 459.631 101.315 460.875 98.3236C461.103 97.801 461.331 97.2785 461.566 96.7401C461.766 96.2645 461.966 95.7889 462.173 95.2989C462.375 94.8282 462.577 94.3575 462.785 93.8725C463.664 91.2177 464.144 88.5002 464.65 85.7536C464.723 86.2871 464.795 86.8207 464.869 87.3704C467.156 110.266 467.156 110.266 479.083 128.767C489.857 136.057 505.441 134.14 517.575 131.984C533.782 128.865 556.006 124.547 566.86 111.024C569.882 106.109 569.001 98.972 567.728 93.573C565.671 87.4278 562.525 83.2557 556.871 80.1756C549.678 77.8594 541.397 79.4715 534.494 81.9826C533.444 82.6081 532.395 83.2368 531.348 83.8681C529.667 84.5859 527.955 85.2099 526.236 85.8321C525.786 85.9982 525.336 86.1643 524.872 86.3354C518.092 88.8291 518.092 88.8291 514.359 88.2676C513.179 87.207 513.179 87.207 512.472 85.7536C512.145 85.1387 512.145 85.1387 511.813 84.5113C510.911 81.6533 510.972 78.8744 510.977 75.894C510.978 75.2506 510.978 74.6072 510.979 73.9444C511.063 68.4449 512.019 63.476 513.402 58.1791C514.055 55.5203 514.486 52.821 514.937 50.1223C515.301 47.9515 515.686 45.7952 516.153 43.6441C517.287 38.2638 517.7 33.0403 517.741 27.5388C517.75 26.8979 517.759 26.257 517.768 25.5967C517.741 21.3939 517.479 17.9916 514.492 14.7797C514.111 14.4921 513.73 14.2045 513.337 13.9082C511.258 12.3096 511.258 12.3096 510.584 10.9621C503.909 7.63527 496.689 5.82233 489.269 5.81625C488.78 5.80855 488.291 5.80086 487.787 5.79293C482.343 5.77922 477.359 7.11361 473.263 10.8442C471.54 12.6371 471.063 14.101 470.943 16.6186C470.527 16.6186 470.112 16.6186 469.684 16.6186C468.341 20.0843 467.89 23.565 467.403 27.2245C467.319 27.837 467.234 28.4495 467.148 29.0806C466.941 30.5827 466.738 32.0851 466.538 33.5881C466.364 33.1445 466.191 32.7009 466.012 32.2439C465.362 30.5912 464.693 28.9471 464.021 27.3031C463.762 26.6549 463.502 26.0068 463.235 25.339C459.725 19.5801 454.022 15.6063 447.484 14.0162C438.109 12.1014 427.436 13.0695 418.992 17.7185C415.187 20.25 411.886 23.4873 410.537 27.9316C409.821 35.3119 410.905 41.5086 413.228 48.4757C414.082 51.2051 414.738 53.9861 415.413 56.764C415.672 57.8231 415.931 58.882 416.19 59.9409C416.299 60.3896 416.407 60.8384 416.519 61.3007C416.788 62.341 417.118 63.3652 417.458 64.3846C417.878 71.4069 417.892 77.9667 414.941 84.4966C414.526 84.9114 414.111 85.3262 413.683 85.7536C413.683 86.3758 413.683 86.998 413.683 87.6391C413.333 87.8076 412.982 87.9761 412.621 88.1497C411.123 88.88 411.123 88.88 409.672 89.9174C407.641 90.9798 406.505 91.1659 404.245 90.7816C401.59 88.2034 400.432 85.4718 400.28 81.8156C400.268 80.7715 400.266 79.7272 400.273 78.683C400.275 78.1306 400.277 77.5783 400.279 77.0092C400.389 70.2544 401.303 63.6553 403.804 57.3499C405.081 54.0604 405.792 50.638 406.442 47.1819C406.645 46.1344 406.868 45.0907 407.12 44.0541C408.027 40.0319 408.154 36.0832 408.177 31.9776C408.183 31.428 408.189 30.8785 408.195 30.3122C408.161 23.0318 406.862 17.6866 401.863 12.2559C393.888 4.68313 383.853 4.31138 373.459 4.48314C365.351 4.78155 359.309 7.63965 353.435 13.2404ZM116.059 85.1251C115.436 86.0584 115.436 86.0584 114.801 87.0106C115.423 87.218 116.046 87.4254 116.688 87.6391C116.896 86.8095 117.103 85.9798 117.317 85.1251C116.902 85.1251 116.487 85.1251 116.059 85.1251Z" fill="#4FC4FF"/>
<path d="M483.946 0.960269C488.297 0.912298 492.648 0.879632 496.999 0.857137C498.476 0.84775 499.953 0.83498 501.43 0.818635C503.565 0.795621 505.7 0.785155 507.835 0.776924C508.486 0.767234 509.136 0.757543 509.806 0.74756C519.221 0.745442 528.468 3.77359 535.515 10.1129C540.076 14.9425 540.408 20.6937 540.374 27.0491C540.37 28.1859 540.37 28.1859 540.367 29.3457C540.162 40.8376 537.713 52.1087 535.215 63.2951C534.196 67.9336 533.64 72.5932 533.123 77.3103C533.665 77.0885 534.208 76.8667 534.766 76.6382C542.165 73.861 549.286 73.7193 557.129 73.8076C559.261 73.8293 561.391 73.8205 563.523 73.8084C564.895 73.8127 566.267 73.8188 567.64 73.8267C568.268 73.8236 568.897 73.8205 569.545 73.8173C575.354 73.9136 580.021 75.6863 584.195 79.7578C589.621 85.3968 589.835 90.7937 589.729 98.2501C589.709 99.9608 589.729 101.668 589.753 103.378C589.751 104.476 589.746 105.574 589.739 106.673C589.746 107.178 589.754 107.683 589.762 108.204C589.678 111.594 588.83 113.351 586.467 115.799C576.104 125.387 560.571 129.232 547.112 132.265C546.309 132.447 545.505 132.628 544.677 132.815C542.302 133.331 539.925 133.808 537.537 134.26C536.853 134.39 536.169 134.521 535.464 134.655C527.885 135.874 520.223 135.722 512.566 135.709C510.158 135.707 507.75 135.722 505.341 135.738C481.203 135.801 481.203 135.801 472.597 127.65C468.814 123.58 468.814 123.58 468.814 121.118C468.19 121.118 467.566 121.118 466.923 121.118C466.715 121.737 466.507 122.357 466.292 122.995C464.836 124.013 463.412 124.924 461.879 125.811C461.445 126.064 461.012 126.317 460.565 126.578C457.499 128.33 454.598 129.644 451.161 130.505C450.463 130.708 449.766 130.912 449.048 131.121C440.351 133.587 431.882 134.455 422.851 134.448C421.984 134.451 421.117 134.453 420.25 134.456C418.449 134.461 416.648 134.461 414.847 134.457C413.024 134.455 411.2 134.459 409.377 134.47C390.052 134.59 390.052 134.59 381.808 132.382C381.012 132.191 381.012 132.191 380.2 131.995C372.245 129.991 366.734 126.889 361.632 120.492C360.726 119.358 359.82 118.223 358.913 117.089C358.293 116.296 358.293 116.296 357.66 115.488C356.683 114.178 356.683 114.178 355.327 113.608C354.849 112.535 354.375 111.46 353.934 110.371C353.424 109.121 353.424 109.121 352.451 107.663C351.344 105.752 350.83 103.846 350.284 101.717C349.868 101.717 349.451 101.717 349.023 101.717C348.815 103.163 348.607 104.609 348.392 106.098C348.184 106.098 347.976 106.098 347.762 106.098C347.762 103.207 347.762 100.315 347.762 97.3365C348.178 97.5431 348.594 97.7496 349.023 97.9624C349.231 95.8972 349.439 93.832 349.653 91.7042C350.914 92.33 350.914 92.33 351.382 93.4783C351.529 93.9739 351.675 94.4694 351.825 94.9799C351.994 95.5295 352.163 96.079 352.337 96.6452C352.518 97.2347 352.698 97.8243 352.884 98.4317C356.613 110.002 363.388 119.859 374.469 125.65C389.203 131.981 407.984 132.543 423.419 128.628C424.115 128.461 424.811 128.294 425.528 128.122C438.249 124.674 449.153 117.48 455.771 106.02C457.367 103.186 458.735 100.334 459.987 97.3365C460.216 96.8162 460.444 96.2959 460.679 95.7598C462.045 92.5378 462.927 89.4884 463.46 86.0302C463.614 85.4312 463.614 85.4312 463.77 84.8201C464.186 84.6136 464.603 84.4071 465.031 84.1943C465.104 84.7446 465.176 85.2948 465.251 85.8617C467.249 108.297 467.249 108.297 478.417 126.65C488.786 133.977 503.771 132.47 515.694 130.534C531.759 127.697 555.436 123.407 566.142 110.024C569.193 105.1 568.345 98.0214 567.051 92.6062C565.298 87.3778 562.719 83.0613 557.712 80.4394C550.303 77.4586 541.671 79.057 534.384 81.691C533.332 82.3139 532.281 82.9399 531.232 83.5685C529.547 84.2832 527.831 84.9046 526.109 85.5242C525.658 85.6896 525.207 85.8549 524.742 86.0253C517.75 88.5812 517.75 88.5812 514.209 87.9492C511.348 85.3341 510.378 82.4085 510.214 78.6328C510.195 77.4229 510.188 76.2127 510.189 75.0026C510.19 74.362 510.191 73.7213 510.191 73.0613C510.276 67.5853 511.234 62.6375 512.619 57.3632C513.165 55.1523 513.55 52.9174 513.933 50.6738C514.007 50.2448 514.081 49.8158 514.157 49.3738C514.307 48.5026 514.456 47.6314 514.605 46.76C515.026 44.3076 515.466 41.8586 515.903 39.4091C516.063 38.5087 516.223 37.6082 516.383 36.7078C516.498 36.0632 516.613 35.4186 516.731 34.7545C516.939 34.7545 517.147 34.7545 517.361 34.7545C517.404 37.202 517.42 39.4186 517.007 41.8341C516.587 43.5721 516.587 43.5721 517.361 45.3935C517.777 45.3935 518.193 45.3935 518.622 45.3935C518.66 45.045 518.699 44.6965 518.738 44.3374C518.791 43.8598 518.844 43.3823 518.898 42.8902C518.949 42.4255 519 41.9609 519.053 41.4821C519.207 40.1553 519.388 38.8315 519.58 37.5096C519.995 34.2101 520.023 30.9183 520.041 27.5967C520.054 26.98 520.067 26.3633 520.08 25.7278C520.107 20.7721 519.523 15.7046 515.933 11.9317C506.452 3.62336 495.545 2.3513 483.315 2.21191C483.523 1.79887 483.731 1.38583 483.946 0.960269Z" fill="#47C1FF"/>
<path d="M37.5288 4.81063C38.4581 4.80658 39.3873 4.80235 40.3166 4.79796C42.2641 4.79047 44.2116 4.78811 46.1592 4.78886C48.1223 4.78896 50.0851 4.78039 52.0481 4.76311C74.6346 4.56728 101.484 5.98988 118.778 22.5208C126.753 30.4528 130.355 39.4272 132.649 50.2281C132.894 49.7935 133.14 49.3589 133.393 48.9111C137.822 41.1942 142.647 33.8003 148.407 26.997C148.998 26.2841 149.589 25.5712 150.18 24.8583C156.738 17.0136 164.215 8.57541 174.881 6.90516C176.986 6.77241 179.075 6.78473 181.184 6.82668C181.732 6.83234 182.281 6.83801 182.846 6.84384C184.183 6.85848 185.52 6.881 186.857 6.90516C186.857 7.31955 186.857 7.73395 186.857 8.1609C187.585 8.2127 188.313 8.2645 189.063 8.31787C192.039 8.67253 194.365 9.83209 196.942 11.3002C196.942 11.7146 196.942 12.129 196.942 12.556C197.369 12.6758 197.795 12.7956 198.235 12.919C200.846 14.173 202.605 16.0054 204.624 18.0498C205.042 18.4721 205.461 18.8943 205.892 19.3293C212.501 26.1434 217.049 33.8458 221.517 42.1618C222.037 43.1066 222.594 44.0307 223.162 44.9477C225.297 48.6023 226.68 52.6797 228.24 56.6028C229.269 59.1802 230.346 61.7309 231.453 64.2767C232.573 66.9267 233.377 69.4786 233.905 72.3041C234.133 73.598 234.133 73.598 234.762 75.3429C233.856 76.7164 233.856 76.7164 232.871 77.8544C232.516 76.8868 232.516 76.8868 232.154 75.8996C229.983 70.0193 229.983 70.0193 227.474 64.2767C226.277 61.7442 225.313 59.1937 224.401 56.5461C223.123 52.8688 221.55 49.4739 219.72 46.0391C219.004 44.5773 219.004 44.5773 219.004 43.3216C218.588 43.3216 218.172 43.3216 217.743 43.3216C217.499 42.7048 217.255 42.0881 217.004 41.4527C215.803 38.6669 214.214 36.194 212.543 33.6681C212.232 33.1966 211.921 32.7251 211.601 32.2393C205.383 22.8815 198.469 15.1815 187.502 11.5112C180.543 10.3602 173.092 11.0829 166.999 14.7658C165.317 16.0327 163.806 17.3899 162.274 18.8347C161.745 19.3244 161.745 19.3244 161.206 19.824C147.114 32.9532 136.977 49.5518 129.497 67.1806C129.066 68.1495 128.633 69.1177 128.197 70.0845C127.556 71.5168 126.93 72.9448 126.346 74.4011C125.983 75.3046 125.606 76.2033 125.191 77.0843C123.754 80.1527 122.577 83.2776 121.5 86.4876C121.365 86.8881 121.23 87.2886 121.091 87.7013C120.384 89.8443 119.8 91.9562 119.412 94.179C118.996 94.179 118.58 94.179 118.151 94.179C118.073 94.7876 117.995 95.3962 117.915 96.0233C117.522 98.7926 116.899 101.503 116.26 104.225C114.352 103.337 112.72 102.283 111.021 101.046C108.324 99.1373 105.556 97.4209 102.708 95.7486C93.4767 90.3201 93.4767 90.3201 91.0474 87.9003C90.7544 86.5268 90.7544 86.5268 91.0474 84.7609C92.3676 83.3841 93.6466 82.2058 95.1051 80.9937C100.995 75.843 107.241 68.9787 108.066 60.9019C108.728 49.0702 107.469 38.0494 99.2416 28.8806C85.864 15.0333 64.674 9.72137 45.8218 9.32364C43.5631 9.28581 41.3045 9.27049 39.0455 9.25967C38.6052 9.25625 38.1648 9.25283 37.7111 9.2493C28.7192 9.19733 21.2561 10.1833 14.2658 16.3624C7.79517 23.3952 5.87869 34.6655 5.86969 43.8881C5.86888 44.7068 5.86807 45.5255 5.86723 46.3689C5.86855 46.7917 5.86987 47.2144 5.87123 47.65C5.87456 48.9104 5.87096 50.1708 5.86723 51.4311C5.87782 62.197 6.9662 72.5638 8.63229 83.1913C8.73095 83.828 8.8296 84.4648 8.93124 85.1208C10.0593 92.3879 11.2036 99.6496 12.69 106.854C12.8019 107.403 12.9139 107.952 13.0292 108.517C14.2559 114.117 16.2847 119.423 18.8357 124.552C19.1859 125.269 19.5361 125.986 19.8969 126.725C21.7266 129.794 23.1617 131.483 26.599 132.665C29.3665 133.216 32.0941 133.298 34.909 133.264C35.6592 133.257 35.6592 133.257 36.4245 133.251C39.8511 133.191 43.0328 132.97 46.2943 131.851C46.8159 131.675 47.3376 131.5 47.875 131.319C53.617 129.229 53.617 129.229 57.6401 124.945C58.4683 118.67 55.8159 114.02 52.4793 108.895C50.3227 105.51 49.3137 103.217 49.4459 99.2019C50.7065 97.9462 50.7065 97.9462 52.4646 97.7377C56.7287 98.1769 60.0975 101.44 62.8132 104.576C64.093 106.308 65.2899 108.071 66.4647 109.876C67.3573 111.21 68.2502 112.544 69.1436 113.878C69.5368 114.479 69.9301 115.079 70.3353 115.698C72.209 118.435 74.0883 120.77 76.7075 122.825C77.3754 123.362 77.3754 123.362 78.0568 123.91C83.3869 127.264 88.454 127.108 94.5745 127.159C95.555 127.18 95.555 127.18 96.5554 127.201C97.1471 127.205 97.7389 127.21 98.3486 127.214C100.115 127.495 100.668 127.967 101.763 129.34C100.931 129.34 100.099 129.34 99.2416 129.34C99.2416 129.754 99.2416 130.168 99.2416 130.595C88.5344 131.49 88.5344 131.49 83.1289 130.399C80.1017 129.875 78.6181 129.844 76.0772 131.616C75.6368 131.97 75.1964 132.325 74.7426 132.69C68.7128 137.376 60.1526 137.697 52.8339 137.691C52.1606 137.693 51.4873 137.696 50.7937 137.699C49.3804 137.703 47.9672 137.703 46.554 137.7C44.4088 137.698 42.2642 137.713 40.119 137.729C38.7369 137.73 37.3548 137.731 35.9727 137.73C35.0249 137.739 35.0249 137.739 34.058 137.748C28.9395 137.715 24.0289 137.056 19.6236 134.323C6.82028 120.384 4.88132 94.6084 2.80178 76.5986C2.74693 76.1909 2.69209 75.7831 2.63558 75.363C0.0997314 55.485 -1.89382 30.1506 10.9172 13.5346C18.0296 5.7562 27.5908 4.82094 37.5288 4.81063ZM116.26 84.7609C115.636 85.6933 115.636 85.6933 115 86.6445C115.624 86.8517 116.248 87.0589 116.891 87.2724C117.099 86.4436 117.307 85.6148 117.521 84.7609C117.105 84.7609 116.689 84.7609 116.26 84.7609Z" fill="#3ABDFF"/>
<path d="M377.423 0.799866C378.142 0.7978 378.862 0.795734 379.604 0.793606C381.121 0.790474 382.639 0.789007 384.157 0.789107C386.46 0.787753 388.762 0.776475 391.064 0.76471C392.546 0.762888 394.027 0.761657 395.509 0.761073C396.528 0.754384 396.528 0.754384 397.567 0.747559C404.222 0.766961 410.431 1.40636 416.356 4.51182C416.779 4.71705 417.201 4.92227 417.636 5.13372C419.783 6.21832 421.041 6.9851 422.592 8.86386C424.124 10.3572 424.124 10.3572 425.695 10.2087C426.243 10.135 426.791 10.0613 427.355 9.98535C431.593 9.51716 435.759 9.57068 440.018 9.64213C441.259 9.65472 442.499 9.66729 443.739 9.67875C446.766 9.70692 449.792 9.74036 452.819 9.79367C455.346 9.83761 457.873 9.85655 460.4 9.87489C461.179 9.89285 461.958 9.91082 462.761 9.92933C467.012 10.0172 467.012 10.0172 470.651 8.10437C471.031 7.57171 471.411 7.03905 471.803 6.49024C474.632 3.79905 478.149 2.46118 481.935 1.5248C482.562 1.72963 483.189 1.93445 483.835 2.14548C485.123 2.19201 486.411 2.23598 487.7 2.26186C498.749 2.53727 508.853 4.77111 516.8 12.7674C520.524 17.2761 520.79 21.909 520.76 27.5158C520.758 28.4514 520.758 28.4514 520.757 29.4059C520.685 34.9444 519.903 40.2005 518.662 45.5931C518.244 45.5931 517.826 45.5931 517.396 45.5931C516.006 43.4305 516.257 42.4441 516.762 40.007C516.899 37.1808 516.907 34.3546 516.915 31.5256C516.921 30.1621 516.94 28.7992 516.96 27.4358C516.964 26.5589 516.968 25.682 516.97 24.8052C516.979 23.6208 516.979 23.6208 516.988 22.4124C516.686 19.3803 515.895 16.8691 513.708 14.6051C513.318 14.3211 512.929 14.0371 512.528 13.7444C511.333 12.8595 511.333 12.8595 510.43 12.0764C510.43 11.6667 510.43 11.2571 510.43 10.835C509.969 10.7574 509.508 10.6798 509.033 10.5998C507.323 10.2272 505.896 9.6987 504.296 9.01175C499.106 6.96378 494.343 6.38146 488.782 6.33507C488.3 6.32927 487.818 6.32347 487.322 6.31749C482.038 6.34687 477.325 7.65174 473.228 11.029C471.717 12.7979 471.116 14.2025 470.537 16.4211C470.119 16.4211 469.701 16.4211 469.27 16.4211C468.856 18.7207 468.513 21.0233 468.204 23.3383C468.126 23.9116 468.048 24.4848 467.968 25.0755C467.806 26.2743 467.647 27.4737 467.493 28.6735C467.375 29.5274 467.375 29.5274 467.254 30.3985C467.185 30.9177 467.117 31.4368 467.046 31.9716C466.944 32.3702 466.842 32.7688 466.737 33.1795C466.111 33.4867 466.111 33.4867 465.471 33.8002C465.31 33.3505 465.149 32.9009 464.984 32.4376C462.092 24.4759 459.211 20.0952 451.565 15.9629C442.269 12.1803 431.076 13.1685 421.778 16.4211C417.098 18.4912 413.305 21.3236 410.932 25.855C408.605 33.1887 410.706 40.8721 413.088 47.8818C413.948 50.5773 414.608 53.3237 415.288 56.0671C415.548 57.1129 415.808 58.1587 416.069 59.2044C416.233 59.8691 416.233 59.8691 416.4 60.5473C416.671 61.5746 417.003 62.5861 417.346 63.5928C417.838 71.6795 417.815 79.6268 412.913 86.558C410.58 88.566 408.19 90.0612 405.156 90.7476C402.708 90.0931 401.508 88.6202 400.248 86.558C398.697 83.6699 398.763 80.9014 398.784 77.7133C398.787 76.8951 398.787 76.8951 398.791 76.0604C398.902 69.3896 399.821 62.8726 402.338 56.6456C403.623 53.3971 404.339 50.0172 404.993 46.6041C405.197 45.5697 405.422 44.539 405.675 43.5153C406.587 39.5431 406.715 35.6435 406.739 31.589C406.745 31.0463 406.751 30.5036 406.757 29.9444C406.723 22.8533 405.462 17.5732 400.525 12.2509C392.773 5.09073 382.434 4.89516 372.433 5.05734C365.287 5.31542 359.449 7.36534 354.023 12.0764C349.387 17.2161 347.391 23.3 346.384 29.9483C345.904 33.0681 345.904 33.0681 344.524 34.4208C342.56 27.6055 344.676 20.7562 347.621 14.5154C348.629 12.7964 350.03 11.5703 351.49 10.2143C351.67 9.71346 351.851 9.2126 352.037 8.69656C353.503 5.46623 357.407 4.08784 360.595 2.75889C366.094 0.837153 371.646 0.805698 377.423 0.799866Z" fill="#48C2FF"/>
<path d="M37.1725 4.84485C38.6705 4.8564 40.1683 4.85767 41.6663 4.85751C42.617 4.86058 43.5676 4.86422 44.5183 4.8685C44.9669 4.8692 45.4155 4.86989 45.8777 4.87061C49.0042 4.90091 49.0042 4.90091 49.7091 5.59866C51.0739 5.78421 52.4393 5.96603 53.8069 6.12964C61.0446 7.00677 67.831 8.63833 74.7835 10.7824C76.0821 11.1783 77.3839 11.552 78.6926 11.9137C82.8491 13.0905 86.4677 14.5658 90.1301 16.8514C90.1301 17.264 90.1301 17.6766 90.1301 18.1017C90.5812 18.2548 91.0322 18.4079 91.4969 18.5657C100.177 22.3764 106.122 30.9751 109.709 39.3569C112.873 48.4804 112.97 59.8426 109.078 68.739C105.639 74.9289 100.953 80.7777 95.1828 84.993C94.7659 84.993 94.3491 84.993 93.9196 84.993C93.9196 85.6119 93.9196 86.2308 93.9196 86.8685C94.3194 87.0063 94.7191 87.1441 95.131 87.286C97.8689 88.4573 100.388 89.9486 102.959 91.4399C103.733 91.8841 103.733 91.8841 104.522 92.3373C107.763 94.2061 110.962 96.1327 114.13 98.1212C115.005 94.4648 115.005 94.4648 115.603 90.7586C116.173 86.138 117.703 82.5094 119.903 78.4265C122.534 73.5302 124.745 68.4223 126.999 63.3471C127.274 62.7274 127.274 62.7274 127.555 62.0953C128.578 59.7764 129.564 57.4472 130.514 55.098C132.935 49.1491 135.555 43.9414 139.393 38.7317C139.827 38.087 140.261 37.4424 140.708 36.7781C144.072 31.7874 147.815 27.2807 151.825 22.7928C152.524 22.003 153.203 21.197 153.878 20.3874C159.231 13.9831 166.31 8.26239 174.762 6.84897C176.871 6.71377 178.965 6.72906 181.078 6.77082C181.627 6.77646 182.177 6.7821 182.743 6.78792C184.083 6.80249 185.422 6.82491 186.762 6.84897C186.762 7.26157 186.762 7.67417 186.762 8.09927C187.491 8.15084 188.221 8.20242 188.972 8.25556C191.954 8.60869 194.284 9.76323 196.867 11.225C196.867 11.6376 196.867 12.0502 196.867 12.4753C197.294 12.5946 197.722 12.7139 198.162 12.8368C200.779 14.0854 202.541 15.9099 204.564 17.9454C204.983 18.3658 205.402 18.7862 205.834 19.2194C212.457 26.004 217.014 33.6731 221.491 41.953C222.012 42.8937 222.57 43.8139 223.139 44.7268C225.278 48.3657 226.664 52.4255 228.227 56.3315C229.258 58.8978 230.338 61.4374 231.446 63.9723C232.568 66.6108 233.374 69.1517 233.903 71.9649C234.132 73.2532 234.132 73.2532 234.762 74.9906C233.854 76.3581 233.854 76.3581 232.867 77.4912C232.512 76.5278 232.512 76.5278 232.149 75.5449C229.974 69.69 229.974 69.69 227.459 63.9723C226.26 61.4507 225.294 58.9113 224.38 56.2751C223.1 52.6137 221.524 49.2335 219.69 45.8135C218.972 44.3581 218.972 44.3581 218.972 43.1078C218.555 43.1078 218.139 43.1078 217.709 43.1078C217.465 42.4937 217.221 41.8797 216.969 41.247C215.766 38.4733 214.173 36.011 212.499 33.4961C212.187 33.0266 211.876 32.5572 211.555 32.0735C205.325 22.7561 198.397 15.0895 187.408 11.435C180.435 10.2891 172.969 11.0086 166.865 14.6756C165.179 15.937 163.665 17.2884 162.13 18.7269C161.6 19.2145 161.6 19.2145 161.059 19.7119C146.94 32.7843 136.782 49.311 129.288 66.8636C128.856 67.8283 128.422 68.7923 127.985 69.7549C127.343 71.181 126.716 72.6028 126.13 74.0528C125.767 74.9524 125.389 75.8472 124.973 76.7244C123.533 79.7795 122.354 82.891 121.275 86.087C121.139 86.4858 121.004 86.8846 120.865 87.2955C120.157 89.4293 119.571 91.5319 119.183 93.7451C118.766 93.7451 118.349 93.7451 117.92 93.7451C117.841 94.3511 117.763 94.9571 117.683 95.5815C117.289 98.3388 116.664 101.037 116.025 103.748C114.113 102.863 112.477 101.814 110.775 100.583C108.072 98.682 105.299 96.973 102.446 95.308C93.1958 89.903 93.1958 89.903 90.7617 87.4936C90.4681 86.1261 90.4681 86.1261 90.7617 84.3678C92.0846 82.997 93.3661 81.8238 94.8275 80.6169C100.729 75.4885 106.987 68.6539 107.814 60.6121C108.478 48.8315 107.216 37.8585 98.9722 28.7293C85.5769 14.9511 64.3574 9.65655 45.4788 9.25698C43.231 9.21923 40.9834 9.20406 38.7354 9.19329C38.0816 9.18818 38.0816 9.18818 37.4147 9.18296C32.1307 9.15225 27.0865 9.41913 21.9196 10.5999C21.9196 9.98098 21.9196 9.36208 21.9196 8.72442C20.8775 8.93072 19.8354 9.13702 18.7617 9.34957C23.3162 3.82347 30.5643 4.7919 37.1725 4.84485Z" fill="#4EC4FF"/>
<path d="M407.244 22.7476C409.078 24.6193 408.741 26.8144 408.837 29.3307C408.861 29.8275 408.884 30.3243 408.909 30.8361C408.966 32.0638 409.016 33.2917 409.065 34.5198C409.265 33.0885 409.466 31.6573 409.672 30.1826C409.873 30.1826 410.073 30.1826 410.279 30.1826C410.288 30.6866 410.297 31.1906 410.305 31.7098C410.522 37.0111 411.516 41.5074 413.068 46.534C414.202 50.229 415.08 53.9872 415.979 57.7474C416.099 58.2465 416.218 58.7456 416.341 59.2598C416.498 59.9234 416.498 59.9234 416.658 60.6003C416.918 61.6259 417.237 62.6356 417.565 63.6405C418.037 71.713 418.015 79.6463 413.315 86.5653C411.078 88.5698 408.787 90.0624 405.878 90.7476C403.53 90.0943 402.38 88.6239 401.172 86.5653C399.685 83.6824 399.748 80.9187 399.768 77.7362C399.77 77.1917 399.772 76.6472 399.775 76.0861C399.881 69.4271 400.763 62.9215 403.175 56.7055C404.396 53.4931 405.081 50.1518 405.705 46.7771C405.909 45.6929 406.123 44.6106 406.352 43.5315C407.263 39.0085 407.388 34.673 407.32 30.0665C407.314 29.3584 407.309 28.6504 407.303 27.9209C407.289 26.1963 407.269 24.472 407.244 22.7476Z" fill="#52C5FF"/>
<path d="M182.067 93.7514C182.502 93.7543 182.936 93.7571 183.383 93.76C184.443 93.7674 185.502 93.7787 186.562 93.7908C186.562 94.2064 186.562 94.622 186.562 95.0503C187.303 95.2256 187.303 95.2256 188.06 95.4045C189.716 96.3097 189.716 96.3097 190.448 98.2491C191.089 100.783 191.095 103.261 191.012 105.859C190.996 106.835 190.98 107.811 190.965 108.786C190.933 110.307 190.898 111.827 190.856 113.347C190.818 114.826 190.796 116.305 190.775 117.785C190.758 118.237 190.741 118.689 190.724 119.155C190.701 121.435 190.91 122.655 192.156 124.593C200.516 132.766 221.075 129.821 231.994 129.73C233.25 129.716 234.506 129.702 235.762 129.686C235.762 130.309 235.762 130.933 235.762 131.575C232.952 131.887 232.952 131.887 230.085 132.205C230.085 132.621 230.085 133.036 230.085 133.464C219.354 136.181 201.551 134.812 191.687 129.703C190.662 129.056 190.662 129.056 189.085 127.797C188.721 127.511 188.356 127.225 187.981 126.931C184.214 122.042 185.671 113.69 186.385 107.903C186.553 106.646 186.735 105.39 186.917 104.135C187.277 101.483 187.277 101.483 187.192 98.8287C186.568 98.4131 185.944 97.9974 185.3 97.5692C185.3 97.1536 185.3 96.738 185.3 96.3097C183.708 96.4548 182.12 96.6142 180.53 96.782C180.086 96.821 179.641 96.86 179.183 96.9001C175.812 97.2724 173.658 98.2839 170.792 100.088C170.233 100.283 169.674 100.478 169.097 100.679C166.562 101.842 165.424 103.711 164.426 106.251C163.843 108.314 163.685 110.026 163.659 112.164C163.644 112.893 163.628 113.623 163.611 114.374C163.589 115.889 163.57 117.405 163.552 118.92C163.331 128.622 163.331 128.622 160.082 132.397C157.023 134.569 154.21 136.181 150.608 137.243C149.944 137.49 149.281 137.736 148.597 137.991C139.325 139.963 128.297 137.875 119.7 134.094C118.985 133.782 118.269 133.471 117.532 133.15C115.795 132.135 114.624 131.28 113.392 129.686C112.919 127.639 112.919 127.639 112.762 125.908C114.524 126.178 115.433 126.644 116.904 127.701C119.394 129.39 122.084 130.195 124.943 131.064C125.45 131.227 125.957 131.391 126.48 131.559C133.208 133.651 139.835 133.615 146.823 133.464C147.396 133.454 147.968 133.443 148.558 133.432C152.134 133.216 154.955 132.212 157.546 129.686C160.037 125.011 160.421 120.322 160.424 115.123C160.449 109.467 160.559 103.518 164.623 99.0895C169.908 94.9003 175.483 93.6686 182.067 93.7514Z" fill="#44C1FF"/>
<path d="M241.795 108.748C243.273 110.312 243.355 111.253 243.674 113.389C243.881 111.857 244.087 110.326 244.3 108.748C244.714 108.748 245.127 108.748 245.553 108.748C245.728 109.268 245.728 109.268 245.906 109.799C249.423 122.643 249.423 122.643 257.689 131.747C265.284 134.659 273.365 133.064 280.821 130.458C282.509 129.965 282.509 129.965 283.762 130.628C283.555 131.285 283.348 131.941 283.135 132.618C281.266 133.49 281.266 133.49 278.907 134.317C275.811 135.393 275.811 135.393 272.793 136.684C266.673 138.942 258.516 137.318 252.742 134.498C251.24 133.808 251.24 133.808 249.838 134.237C247.582 134.706 245.382 134.689 243.094 134.672C242.392 134.67 242.392 134.67 241.675 134.669C240.188 134.665 238.701 134.657 237.214 134.648C236.203 134.645 235.191 134.642 234.179 134.639C231.707 134.632 229.234 134.62 226.762 134.607C226.762 134.388 226.762 134.169 226.762 133.944C227.795 133.944 228.829 133.944 229.894 133.944C229.894 133.506 229.894 133.069 229.894 132.618C232.684 132.289 232.684 132.289 235.531 131.955C235.531 131.298 235.531 130.642 235.531 129.965C234.93 130.13 234.93 130.13 234.317 130.297C231.788 130.734 229.319 130.682 226.762 130.628C226.762 130.41 226.762 130.191 226.762 129.965C227.382 129.86 228.002 129.755 228.641 129.647C233.384 128.782 237.292 127.861 241.168 124.661C241.375 124.223 241.582 123.786 241.795 123.335C242.208 123.335 242.621 123.335 243.047 123.335C242.912 122.172 242.912 122.172 242.773 120.986C242.656 119.959 242.538 118.933 242.421 117.906C242.361 117.396 242.302 116.886 242.24 116.361C241.95 113.807 241.717 111.326 241.795 108.748Z" fill="#52C5FF"/>
<path d="M52.144 97.7476C56.4358 98.1877 59.8264 101.457 62.5597 104.6C63.8477 106.336 65.0524 108.103 66.2348 109.911C67.1332 111.248 68.0319 112.585 68.9311 113.922C69.3269 114.524 69.7227 115.126 70.1305 115.746C72.0164 118.488 73.9078 120.829 76.544 122.888C76.9921 123.247 77.4403 123.605 77.902 123.974C83.2666 127.336 88.3665 127.18 94.5267 127.231C95.1846 127.245 95.8426 127.259 96.5204 127.273C97.4138 127.279 97.4138 127.279 98.3253 127.286C100.103 127.567 100.66 128.04 101.762 129.416C100.924 129.416 100.087 129.416 99.2241 129.416C99.2241 129.831 99.2241 130.246 99.2241 130.674C82.1918 132.077 82.1918 132.077 77.7731 128.669C77.3152 128.085 76.8572 127.501 76.3854 126.899C75.6015 126.233 74.8074 125.579 74.0063 124.933C69.7059 121.222 66.2952 116.786 63.3007 111.995C60.3157 107.22 57.4167 103.599 52.2778 101.102C52.5011 101.493 52.7244 101.883 52.9544 102.285C54.9402 105.817 56.781 109.392 58.503 113.057C58.6944 113.464 58.8858 113.871 59.083 114.29C60.8036 117.988 61.7486 120.942 61.1596 125.012C60.0429 127.714 58.8232 129.603 56.2033 130.989C55.5163 131.145 55.5163 131.145 54.8155 131.304C54.8155 131.719 54.8155 132.134 54.8155 132.562C53.4034 133.093 51.9892 133.616 50.5729 134.135C50.1758 134.285 49.7788 134.435 49.3697 134.59C47.0872 135.419 45.1945 135.892 42.7617 135.708C43.3898 135.396 43.3898 135.396 44.0305 135.079C44.0305 134.248 44.0305 133.418 44.0305 132.562C44.5212 132.424 45.0119 132.286 45.5174 132.144C49.8369 130.84 53.4245 129.403 56.7187 126.27C58.0258 123.677 57.6835 120.609 56.964 117.864C55.747 114.61 54.0601 111.836 52.1589 108.928C49.9882 105.536 48.9728 103.238 49.1058 99.2148C50.3746 97.9565 50.3746 97.9565 52.144 97.7476Z" fill="#4EC4FF"/>
<path d="M176.723 51.7888C180.871 53.0224 184.526 57.134 186.848 60.8713C187.633 63.4767 188.091 66.2094 187.477 68.8959C185.106 71.7995 181.511 73.3307 177.972 73.7232C173.75 73.9075 170.303 73.0752 167.011 70.1916C165.608 67.2736 165.536 64.7487 166.066 61.54C166.861 59.5055 167.914 57.8963 169.215 56.1903C169.647 55.5851 169.647 55.5851 170.088 54.9678C172.001 52.5861 173.611 51.5176 176.723 51.7888Z" fill="#4CC3FF"/>
<path d="M57.131 46.2484C57.7972 46.647 58.4633 47.0456 59.1497 47.4563C59.1497 47.8549 59.1497 48.2535 59.1497 48.6642C59.5105 48.8013 59.8714 48.9383 60.2431 49.0795C62.6902 50.2933 65.2548 51.6923 66.4673 54.0244C66.4951 54.448 66.5228 54.8715 66.5514 55.3079C66.6208 55.9805 66.6902 56.6532 66.7617 57.3462C66.3619 61.509 63.1103 64.0888 59.8226 66.7832C59.3785 66.7832 58.9344 66.7832 58.4768 66.7832C58.4768 67.1818 58.4768 67.5804 58.4768 67.9911C56.3648 68.939 54.75 68.8077 52.4208 68.5951C49.5697 66.6758 48.0776 64.3681 47.0377 61.3475C46.7691 59.6147 46.7542 57.9232 46.7854 56.1761C46.7776 55.7358 46.7698 55.2955 46.7617 54.8419C46.7791 51.9486 47.3107 49.9693 49.0564 47.4563C51.7834 45.3486 53.714 45.51 57.131 46.2484Z" fill="#4BC3FF"/>
<path d="M378.382 0.761604C379.49 0.765733 379.49 0.765733 380.62 0.769946C382.429 0.777086 384.237 0.78709 386.046 0.799738C386.046 1.20243 386.046 1.60513 386.046 2.02003C386.863 2.17104 387.68 2.32205 388.521 2.47764C396.054 4.11322 402.209 7.40764 407.148 13.1814C407.762 14.2229 407.762 14.2229 407.762 16.2822C407.123 17.8838 407.123 17.8838 405.846 18.4939C405.621 18.14 405.396 17.7861 405.165 17.4214C400.907 10.9867 395.697 7.49169 387.907 5.6094C378.527 3.73546 367.094 3.86875 358.677 8.51712C352.339 12.5126 348.62 18.315 347.098 25.4105C346.843 26.7217 346.612 28.0318 346.407 29.351C345.923 32.4178 345.923 32.4178 344.531 33.7476C342.55 27.0478 344.684 20.3149 347.655 14.18C348.672 12.4902 350.084 11.2849 351.557 9.95191C351.739 9.45955 351.92 8.96719 352.108 8.45992C353.587 5.28441 357.525 3.92942 360.74 2.62302C366.525 0.65269 372.309 0.718406 378.382 0.761604Z" fill="#41BAFF"/>
<path d="M168.852 8.74756C169.488 9.992 169.488 9.992 169.488 10.6142C170.119 10.9222 170.119 10.9222 170.762 11.2364C170.762 11.8524 170.762 12.4684 170.762 13.1031C170.079 13.3726 169.396 13.6421 168.693 13.9198C164.893 15.7763 161.982 18.6932 158.964 21.5539C158.118 22.3524 157.256 23.1355 156.392 23.9167C145.643 33.8987 137.545 47.2144 131.445 60.31C131.209 60.8023 130.973 61.2945 130.729 61.8017C130.528 62.2367 130.328 62.6716 130.121 63.1197C129.379 64.1253 129.379 64.1253 128.021 64.5817C127.432 64.6638 127.432 64.6638 126.832 64.7476C126.533 61.826 127.198 60.0648 128.623 57.5167C129.502 55.7945 130.121 54.0419 130.771 52.2253C132.468 47.8337 134.839 44.1519 137.543 40.3059C138.264 39.277 138.966 38.2361 139.667 37.1948C143.04 32.2647 146.809 27.8091 150.824 23.3722C151.528 22.5861 152.213 21.7839 152.893 20.9781C157.283 15.7919 162.678 11.7124 168.852 8.74756Z" fill="#3BBFFF"/>
<path d="M160.574 121.748C161.205 122.41 161.205 122.41 161.849 123.087C162.48 122.645 163.111 122.203 163.762 121.748C162.841 129.803 162.841 129.803 159.22 132.921C156.593 134.928 154.11 136.187 151.012 137.148C150.341 137.41 149.671 137.672 148.98 137.943C139.609 140.04 128.463 137.82 119.774 133.8C119.051 133.468 118.328 133.137 117.583 132.795C115.827 131.716 114.644 130.807 113.399 129.113C112.921 126.937 112.921 126.937 112.762 125.095C114.542 125.383 115.461 125.878 116.948 127.002C119.464 128.798 122.183 129.654 125.073 130.578C125.586 130.751 126.098 130.925 126.626 131.105C133.426 133.328 140.124 133.29 147.187 133.13C147.765 133.119 148.344 133.108 148.94 133.096C152.484 132.87 155.523 131.859 158.024 129.113C159.158 126.728 159.922 124.32 160.574 121.748Z" fill="#48C1FF"/>
<path d="M237.305 75.7476C237.511 75.7476 237.718 75.7476 237.931 75.7476C238.879 80.3188 239.787 84.836 240.321 89.4777C240.828 93.4408 241.9 97.0934 243.063 100.906C244.58 105.914 245.369 109.909 244.199 115.113C243.785 114.903 243.372 114.694 242.946 114.478C242.554 112.851 242.554 112.851 242.319 111.303C242.319 112.77 242.319 114.236 242.319 115.748C240.977 113.709 240.856 112.847 240.595 110.47C240.04 106.413 239.039 102.58 237.931 98.6444C235.995 91.6967 234.51 84.9234 234.797 77.6523C236.194 79.0671 236.485 79.9746 237.069 81.8587C237.233 82.3776 237.396 82.8965 237.564 83.4311C237.685 83.8289 237.806 84.2266 237.931 84.6364C237.828 84.1126 237.724 83.5888 237.618 83.0491C237.268 80.5649 237.262 78.2543 237.305 75.7476Z" fill="#6CF3FF"/>
<path d="M250.391 125.748C253.344 127.343 253.344 127.343 254.405 128.444C257.502 131.164 261.825 131.73 265.876 131.751C271.181 131.484 275.735 130.782 280.805 129.188C282.502 128.744 282.502 128.744 283.762 129.343C283.554 129.936 283.346 130.529 283.132 131.14C281.253 131.929 281.253 131.929 278.882 132.676C275.769 133.648 275.769 133.648 272.736 134.815C267.019 136.711 259.741 135.426 254.169 133.537C251.873 132.08 250.801 130.559 249.762 128.144C249.919 126.684 249.919 126.684 250.391 125.748Z" fill="#3DBEFF"/>
<path d="M464.869 84.7476C465.063 84.7476 465.257 84.7476 465.456 84.7476C465.527 85.3121 465.597 85.8766 465.67 86.4582C467.509 101.14 467.509 101.14 471.302 115.356C471.911 117.358 471.911 117.358 471.324 118.612C470.937 118.612 470.55 118.612 470.151 118.612C469.86 120.164 469.86 120.164 469.564 121.748C469.177 121.541 468.789 121.334 468.39 121.12C468.252 119.912 468.116 118.704 468.003 117.492C467.757 115.776 467.144 114.289 466.527 112.691C465.716 110 465.336 107.209 464.922 104.421C464.745 103.291 464.518 102.17 464.283 101.053C463.895 100.846 463.508 100.639 463.109 100.426C463.696 98.5442 463.696 98.5442 464.283 97.9171C464.089 97.9171 463.895 97.9171 463.696 97.9171C463.696 96.8823 463.696 95.8476 463.696 94.7815C463.309 94.7815 462.921 94.7815 462.522 94.7815C462.45 95.3894 462.377 95.9973 462.302 96.6236C462.181 97.2574 462.06 97.8912 461.935 98.5442C461.548 98.7511 461.161 98.9581 460.762 99.1713C461.016 98.4082 461.27 97.645 461.532 96.8588C462.549 93.63 463.232 90.3486 463.902 87.0209C464.283 85.3747 464.283 85.3747 464.869 84.7476Z" fill="#54C6FF"/>
<path d="M113.167 121.748C113.595 122.791 114.023 123.835 114.464 124.911C114.036 124.911 113.608 124.911 113.167 124.911C113.488 126.789 113.488 126.789 113.816 128.706C114.458 128.915 115.1 129.124 115.762 129.339C114.464 130.604 114.464 130.604 112.233 130.748C111.279 130.747 110.325 130.74 109.372 130.727C108.869 130.726 108.367 130.724 107.85 130.722C106.244 130.715 104.638 130.699 103.032 130.683C101.944 130.677 100.856 130.671 99.7685 130.666C97.0995 130.652 94.4306 130.63 91.7617 130.604C91.7617 130.395 91.7617 130.186 91.7617 129.971C94.1163 129.971 96.4709 129.971 98.8969 129.971C98.8969 129.136 98.8969 128.301 98.8969 127.441C98.4687 127.023 98.0406 126.606 97.5996 126.176C98.0937 126.068 98.5879 125.96 99.097 125.85C102.954 124.967 106.476 123.957 110.028 122.234C111.221 121.748 111.221 121.748 113.167 121.748Z" fill="#73D0FF"/>
<path d="M302.879 9.74756C303.093 10.1582 303.306 10.5689 303.526 10.992C304.594 10.7867 305.662 10.5813 306.762 10.3698C305.905 13.0869 304.396 14.8098 302.452 16.8715C300.658 18.8686 300.815 20.5671 300.733 23.1496C300.706 23.9597 300.679 24.7699 300.651 25.6045C300.625 26.4633 300.6 27.3221 300.574 28.1809C300.546 29.0446 300.518 29.9082 300.489 30.7719C300.42 32.8896 300.354 35.0074 300.291 37.1253C299.65 37.4333 299.65 37.4333 298.997 37.7476C296.789 30.3696 295.332 22.4564 298.997 15.3476C300.008 13.8309 300.008 13.8309 300.938 12.8587C301.365 12.8587 301.792 12.8587 302.232 12.8587C302.446 11.832 302.659 10.8053 302.879 9.74756Z" fill="#50C4FF"/>
<path d="M301.762 88.7715C301.762 88.9693 301.762 89.1671 301.762 89.3709C301.28 89.4436 300.798 89.5162 300.301 89.591C299.355 89.7417 299.355 89.7417 298.39 89.8954C297.764 89.9928 297.138 90.0901 296.493 90.1904C294.652 90.4983 294.652 90.4983 292.875 91.7685C292.875 92.3619 292.875 92.9553 292.875 93.5667C292.247 93.9623 291.618 94.3579 290.971 94.7655C289.589 95.8015 289.124 96.328 288.725 97.9709C288.593 101.889 289.595 105.152 291.112 108.774C291.606 110.35 291.606 110.35 290.971 112.748C290.133 110.967 289.295 109.187 288.432 107.353C288.432 108.935 288.432 110.518 288.432 112.148C287.995 111.355 287.577 110.554 287.163 109.751C286.822 109.194 286.482 108.638 286.131 108.065C284.44 104.27 284.284 98.9668 285.838 95.1331C289.709 89.6973 295.295 88.5581 301.762 88.7715Z" fill="#5AC8FF"/>
<path d="M234.354 37.7476C234.596 37.7476 234.839 37.7476 235.088 37.7476C235.099 38.4011 235.11 39.0547 235.121 39.728C235.349 52.6877 235.852 65.4655 237.772 78.3333C238.136 80.8017 238.449 83.2739 238.762 85.7476C234.94 80.8191 234.487 75.1362 233.849 69.366C233.755 68.5533 233.662 67.7406 233.567 66.9033C232.899 60.7382 232.564 54.6688 232.884 48.4844C232.907 48.0093 232.93 47.5343 232.954 47.0448C233.394 38.5724 233.394 38.5724 234.354 37.7476Z" fill="#38BEFF"/>
<path d="M285.094 19.7476C285.291 19.7476 285.487 19.7476 285.69 19.7476C285.895 25.2916 285.672 30.5576 284.871 36.0382C284.795 36.5558 284.72 37.0735 284.643 37.6068C284.31 39.7498 283.948 41.7099 283.269 43.7595C282.486 46.5481 282.434 49.2646 282.338 52.1663C282.303 53.0235 282.303 53.0235 282.268 53.8979C282.212 55.2976 282.163 56.6976 282.115 58.0976C281.525 58.4193 281.525 58.4193 280.923 58.7476C278.008 49.2106 281.253 37.5712 283.306 28.1976C283.506 27.2424 283.705 26.2869 283.902 25.331C284.289 23.4668 284.685 21.606 285.094 19.7476Z" fill="#3DBEFF"/>
<path d="M160.598 121.748C161.016 122.205 161.434 122.662 161.864 123.134C162.49 122.676 163.116 122.219 163.762 121.748C162.848 130.085 162.848 130.085 159.254 133.312C155.823 136.043 152.329 138.137 147.945 137.686C148.154 137.229 148.363 136.772 148.578 136.3C149.622 136.3 150.666 136.3 151.741 136.3C151.741 135.843 151.741 135.386 151.741 134.914C151.047 134.92 151.047 134.92 150.34 134.925C148.237 134.94 146.134 134.949 144.031 134.958C142.939 134.966 142.939 134.966 141.825 134.975C141.122 134.978 140.418 134.98 139.694 134.982C139.048 134.986 138.402 134.989 137.736 134.993C136.008 134.918 134.444 134.649 132.762 134.221C132.762 133.993 132.762 133.764 132.762 133.528C133.378 133.534 133.378 133.534 134.007 133.539C135.899 133.554 137.79 133.563 139.681 133.572C140.328 133.578 140.974 133.583 141.64 133.589C149.687 133.801 149.687 133.801 156.973 130.624C159.108 128.18 159.819 124.954 160.598 121.748Z" fill="#50C5FF"/>
<path d="M232.494 40.7476C232.71 40.7476 232.926 40.7476 233.148 40.7476C233.161 41.2745 233.174 41.8015 233.187 42.3444C233.521 55.5858 233.521 55.5858 234.675 68.7791C235.124 72.6608 235.177 76.4387 235.111 80.3471C235.107 83.1759 235.38 85.9455 235.762 88.7476C233.358 85.2626 232.142 81.0823 232.78 76.9055C232.874 76.4919 232.967 76.0783 233.064 75.6522C233.246 74.1187 233.246 74.1187 232.499 72.3455C231.553 69.2485 231.746 66.2126 231.856 63.0132C231.872 62.3746 231.889 61.736 231.906 61.078C231.959 59.051 232.022 57.0243 232.086 54.9976C232.124 53.6181 232.161 52.2385 232.198 50.859C232.289 47.4883 232.389 44.1179 232.494 40.7476Z" fill="#4BC8FF"/>
<path d="M347.905 84.7476C348.282 84.7476 348.659 84.7476 349.047 84.7476C350.442 89.7294 350.087 94.2447 349.619 99.3563C349.242 99.1554 348.865 98.9545 348.476 98.7476C348.476 99.9528 348.476 101.158 348.476 102.4C349.23 102.4 349.985 102.4 350.762 102.4C350.573 102.801 350.385 103.203 350.19 103.617C349.967 105.164 349.765 106.706 349.583 108.258C349.531 108.688 349.479 109.118 349.426 109.561C349.298 110.623 349.172 111.685 349.047 112.748C348.859 112.748 348.67 112.748 348.476 112.748C348.287 111.141 348.099 109.534 347.905 107.878C347.622 109.385 347.622 109.385 347.333 110.921C347.145 110.921 346.956 110.921 346.762 110.921C347.071 102.192 347.413 93.4679 347.905 84.7476Z" fill="#68CDFF"/>
<path d="M517.922 17.7476C519.562 18.992 519.562 18.992 519.762 20.7854C519.758 21.5395 519.755 22.2936 519.752 23.0705C519.751 23.4791 519.751 23.8878 519.75 24.3089C519.748 25.1782 519.741 26.0475 519.731 26.9168C519.717 28.2209 519.714 29.5247 519.715 30.8288C519.697 35.8257 519.418 40.7738 518.742 45.7476C518.201 45.7476 517.66 45.7476 517.102 45.7476C515.3 43.5759 515.629 42.5959 516.282 40.1476C516.393 38.5144 516.471 36.8937 516.513 35.2597C516.528 34.7975 516.543 34.3353 516.558 33.8591C516.623 31.8907 516.679 29.9221 516.735 27.9536C516.777 26.513 516.824 25.0725 516.871 23.6319C516.883 23.1854 516.894 22.7388 516.905 22.2787C517.009 19.1325 517.009 19.1325 517.922 17.7476Z" fill="#3CBEFF"/>
<path d="M303.826 89.6441C305.29 90.858 305.39 91.3138 305.715 93.1083C305.758 94.7709 305.773 96.4169 305.753 98.0785C305.751 98.5274 305.748 98.9763 305.745 99.4388C305.738 100.542 305.727 101.645 305.715 102.748C305.104 102.748 304.494 102.748 303.864 102.748C303.886 102.116 303.907 101.485 303.929 100.834C303.947 100.004 303.964 99.1728 303.98 98.3421C303.996 97.9262 304.011 97.5104 304.027 97.0819C304.053 95.3364 304.07 94.0382 303.12 92.527C301.666 91.7073 300.679 91.7031 299.007 91.7527C298.463 91.7683 297.919 91.7838 297.359 91.7998C295.784 91.9076 294.289 92.108 292.762 92.5058C293.362 90.9072 293.784 90.2172 295.306 89.3429C298.343 88.5692 300.91 88.4321 303.826 89.6441Z" fill="#3BBDFF"/>
<path d="M347.143 107.748C347.329 107.748 347.516 107.748 347.708 107.748C347.724 109.273 347.735 110.799 347.744 112.325C347.749 112.759 347.753 113.192 347.758 113.639C347.773 116.917 347.773 116.917 347.143 118.299C346.924 119.563 346.726 120.831 346.541 122.101C346.441 122.781 346.341 123.461 346.239 124.162C346.163 124.685 346.088 125.208 346.011 125.748C345.824 125.748 345.637 125.748 345.445 125.748C345.258 124.314 345.072 122.88 344.879 121.403C344.319 122.837 343.759 124.27 343.182 125.748C342.58 123.733 342.666 122.474 343.179 120.443C343.309 119.919 343.438 119.394 343.572 118.855C343.711 118.313 343.851 117.771 343.995 117.213C344.132 116.662 344.27 116.111 344.412 115.543C344.751 114.184 345.096 112.827 345.445 111.472C345.818 111.472 346.192 111.472 346.577 111.472C346.565 110.972 346.553 110.473 346.541 109.959C346.577 108.368 346.577 108.368 347.143 107.748Z" fill="#66CCFF"/>
<path d="M174.762 94.411C173.592 95.0713 172.422 95.7315 171.216 96.4117C171.801 96.8519 172.386 97.292 172.989 97.7455C171.523 98.7852 170.136 99.7016 168.52 100.413C167.038 101.099 165.985 101.994 164.716 103.081C164.326 103.081 163.936 103.081 163.534 103.081C162.949 103.301 162.364 103.521 161.762 103.748C162.587 100.227 164.513 98.4122 167.08 96.4117C171.956 93.3174 171.956 93.3174 174.762 94.411Z" fill="#5CC8FF"/>
<path d="M343.298 31.7476C345.336 32.3476 345.336 32.3476 346.695 33.5476C346.787 35.1709 346.787 35.1709 346.679 37.2085C346.644 37.9355 346.609 38.6626 346.573 39.4116C346.529 40.1742 346.485 40.9368 346.44 41.7226C346.401 42.4898 346.363 43.2571 346.323 44.0476C346.227 45.9479 346.124 47.8478 346.015 49.7476C344.589 47.3961 344.028 45.0439 343.51 42.4351C343.419 41.9807 343.328 41.5264 343.234 41.0583C342.628 37.7998 342.56 35.0079 343.298 31.7476Z" fill="#62FEFF"/>
<path d="M345.358 20.7476C345.95 23.3836 345.829 24.6865 345.394 27.3076C345.282 27.9973 345.17 28.687 345.055 29.3976C344.921 30.1846 344.921 30.1846 344.784 30.9876C344.404 30.9876 344.025 30.9876 343.635 30.9876C343.635 32.8884 343.635 34.7892 343.635 36.7476C341.923 34.8416 341.664 34.4453 341.229 31.9876C341.137 31.5 341.046 31.0124 340.952 30.5101C340.762 29.0676 340.762 29.0676 340.762 26.5076C341.141 26.5076 341.52 26.5076 341.911 26.5076C341.911 25.2404 341.911 23.9732 341.911 22.6676C343.06 24.5876 343.06 24.5876 343.635 25.8676C344.203 24.178 344.772 22.4884 345.358 20.7476Z" fill="#61CBFF"/>
<path d="M155.762 130.748C154.627 134.423 154.627 134.423 153.946 136.164C151.655 137.362 149.759 137.897 147.288 137.712C147.488 137.201 147.688 136.69 147.893 136.164C148.892 136.164 149.891 136.164 150.92 136.164C150.92 135.653 150.92 135.143 150.92 134.616C150.256 134.623 150.256 134.623 149.579 134.629C147.567 134.645 145.555 134.655 143.543 134.665C142.498 134.675 142.498 134.675 141.433 134.684C140.76 134.687 140.087 134.689 139.394 134.692C138.776 134.696 138.157 134.7 137.521 134.704C135.867 134.62 134.371 134.32 132.762 133.843C132.762 133.587 132.762 133.332 132.762 133.069C133.351 133.075 133.351 133.075 133.953 133.081C135.763 133.097 137.572 133.107 139.382 133.117C140 133.124 140.618 133.13 141.255 133.137C146.218 133.157 151.234 130.748 155.762 130.748Z" fill="#7BD2FF"/>
<path d="M402.068 66.7476C402.297 66.7476 402.526 66.7476 402.762 66.7476C402.533 73.0176 402.304 79.2876 402.068 85.7476C401.61 85.7476 401.152 85.7476 400.68 85.7476C399.728 82.7188 399.831 79.7334 399.812 76.6038C399.798 76.0074 399.783 75.411 399.769 74.7966C399.735 69.2799 399.735 69.2799 402.068 66.7476Z" fill="#36BCFF"/>
<path d="M121.762 133.748C122.464 133.883 123.166 134.019 123.89 134.159C131.489 135.589 139.077 136.53 146.762 137.257C146.545 137.721 146.328 138.184 146.104 138.661C141.067 138.918 136.31 138.6 131.342 137.74C130.596 137.616 130.596 137.616 129.834 137.49C126.841 136.937 124.437 136.064 121.762 134.45C121.762 134.218 121.762 133.986 121.762 133.748Z" fill="#6DD1FF"/>
<path d="M304.52 90.7476C306.723 92.8085 306.715 94.7299 306.762 97.5218C306.725 102.22 305.961 106.791 303.141 110.748C303.141 109.044 303.141 107.341 303.141 105.586C302.686 106.012 302.231 106.438 301.762 106.877C302.217 102.619 302.672 98.3605 303.141 93.9734C303.369 93.9734 303.596 93.9734 303.831 93.9734C303.831 96.954 303.831 99.9347 303.831 103.006C304.058 103.006 304.286 103.006 304.52 103.006C304.52 98.9605 304.52 94.9153 304.52 90.7476Z" fill="#65CBFF"/>
<path d="M291.35 121.748C291.816 121.748 292.282 121.748 292.762 121.748C292.435 125.006 291.955 126.335 289.527 128.528C287.576 129.988 285.607 131.395 283.585 132.748C283.119 132.022 282.653 131.296 282.173 130.548C281.708 130.306 281.242 130.064 280.762 129.814C283.585 127.614 286.409 125.414 289.232 123.214C289.698 123.456 290.164 123.698 290.644 123.948C290.877 123.222 291.11 122.496 291.35 121.748Z" fill="#56C6FF"/>
<path d="M464.609 84.7476C464.79 84.7476 464.972 84.7476 465.159 84.7476C466.094 93.7449 466.094 93.7449 464.059 97.5302C463.878 97.5302 463.697 97.5302 463.51 97.5302C463.51 96.5258 463.51 95.5215 463.51 94.4867C463.147 94.4867 462.784 94.4867 462.411 94.4867C462.343 95.0767 462.275 95.6668 462.204 96.2747C462.091 96.8899 461.978 97.5051 461.861 98.1389C461.498 98.3397 461.135 98.5406 460.762 98.7476C461 98.0069 461.238 97.2661 461.483 96.503C462.435 93.3691 463.075 90.1841 463.703 86.9541C464.059 85.3563 464.059 85.3563 464.609 84.7476Z" fill="#6AF4FF"/>
<path d="M469.762 13.7476C469.457 17.9846 468.9 22.1258 467.59 26.1285C467.232 26.3328 466.873 26.5371 466.504 26.7476C465.411 24.2542 465.696 21.1657 466.269 18.5137C467.728 13.7476 467.728 13.7476 469.762 13.7476Z" fill="#3FBFFF"/>
<path d="M101.762 128.948C99.7856 129.621 98.0237 129.76 95.9672 129.747C95.3503 129.744 94.7335 129.742 94.0979 129.74C93.4584 129.733 92.8188 129.727 92.1599 129.721C91.1859 129.716 91.1859 129.716 90.1923 129.711C88.5919 129.703 86.9917 129.691 85.3913 129.676C85.1836 128.955 84.9758 128.234 84.7617 127.491C86.9258 127.348 89.0902 127.214 91.2548 127.082C91.8696 127.041 92.4844 127 93.1178 126.958C94.0035 126.905 94.0035 126.905 94.9071 126.852C95.4512 126.817 95.9952 126.783 96.5557 126.748C98.7579 126.772 99.9331 127.538 101.762 128.948Z" fill="#39BDFF"/>
<path d="M284.976 95.7476C285.172 95.7476 285.369 95.7476 285.571 95.7476C285.571 98.6564 285.571 101.565 285.571 104.562C286.161 104.562 286.75 104.562 287.358 104.562C287.358 102.069 287.358 99.5757 287.358 97.0068C287.555 97.0068 287.751 97.0068 287.954 97.0068C288.051 97.8055 288.051 97.8055 288.151 98.6202C288.768 103.444 288.768 103.444 290.15 108.065C290.932 110.229 290.932 110.229 290.336 112.748C289.55 110.878 288.764 109.008 287.954 107.081C287.954 108.743 287.954 110.405 287.954 112.118C287.544 111.285 287.151 110.443 286.762 109.599C286.443 109.015 286.124 108.431 285.795 107.829C284.271 104.154 284.846 99.6828 284.976 95.7476Z" fill="#79D2FF"/>
<path d="M20.7617 134.748C21.5455 134.829 22.3292 134.91 23.1367 134.994C26.5626 135.34 29.9944 135.632 33.4284 135.92C34.3468 135.997 34.3468 135.997 35.2839 136.076C36.7764 136.202 38.2691 136.328 39.7617 136.453C39.7617 136.828 39.7617 137.203 39.7617 137.59C26.873 137.912 26.873 137.912 21.4654 135.884C21.2332 135.509 21.001 135.134 20.7617 134.748Z" fill="#70D3FF"/>
<path d="M464.166 23.7476C465.571 23.7476 465.571 23.7476 466.72 24.4458C468.118 26.1637 467.785 27.3745 467.546 29.4507C467.478 30.1226 467.41 30.7945 467.34 31.4868C467.16 32.2965 467.16 32.2965 466.975 33.1226C466.28 33.4319 466.28 33.4319 465.571 33.7476C465.099 32.6422 464.631 31.5351 464.166 30.4272C463.906 29.8109 463.645 29.1946 463.376 28.5596C462.762 26.8726 462.762 26.8726 462.762 24.9976C463.225 25.2038 463.689 25.4101 464.166 25.6226C464.166 25.0038 464.166 24.3851 464.166 23.7476Z" fill="#6BF4FF"/>
<path d="M298.603 22.7476C298.835 22.7476 299.068 22.7476 299.307 22.7476C300.222 27.5771 300.955 32.2501 300.716 37.1476C300.251 37.3456 299.786 37.5436 299.307 37.7476C297.73 32.9608 297.58 28.2931 297.898 23.3476C298.131 23.1496 298.363 22.9516 298.603 22.7476Z" fill="#37BCFF"/>
<path d="M350.762 94.7476C352.554 96.4587 353.019 98.4196 353.762 100.674C354.676 103.401 355.604 106.103 356.762 108.748C356.322 108.748 355.882 108.748 355.428 108.748C355.208 108.118 354.988 107.488 354.762 106.838C354.102 107.258 353.442 107.678 352.762 108.111C351.218 105.901 351.259 104.976 351.428 102.384C351.648 101.754 351.868 101.124 352.095 100.475C351.665 99.4087 351.22 98.3482 350.762 97.293C350.762 96.453 350.762 95.613 350.762 94.7476Z" fill="#60CAFF"/>
<path d="M232.788 40.7476C233.113 40.7476 233.439 40.7476 233.775 40.7476C234.1 51.3076 234.426 61.8676 234.762 72.7476C234.11 72.5405 233.459 72.3334 232.788 72.1201C231.413 68.7704 231.763 65.3776 231.92 61.9485C231.943 61.3411 231.967 60.7336 231.991 60.1078C232.066 58.1771 232.149 56.2467 232.232 54.3162C232.285 53.0033 232.337 51.6904 232.388 50.3775C232.516 47.1674 232.65 43.9575 232.788 40.7476Z" fill="#86D6FF"/>
<path d="M411.762 41.7476C413.147 44.4098 413.704 47.1911 414.419 50.2378C414.638 51.1305 414.638 51.1305 414.862 52.0412C414.998 52.616 415.134 53.1908 415.273 53.7831C415.398 54.3067 415.523 54.8303 415.652 55.3697C415.877 56.9667 415.746 57.941 415.347 59.4663C415.009 58.6001 414.671 57.7338 414.323 56.8413C414.323 58.7904 414.323 60.7394 414.323 62.7476C412.916 60.0444 412.637 58.7838 412.786 55.5288C412.977 55.0263 413.168 54.5238 413.364 54.0061C413.96 51.6602 413.537 50.5428 412.85 48.269C412.124 45.827 411.762 44.3994 411.762 41.7476Z" fill="#7CD3FF"/>
<path d="M257.762 134.748C263.372 134.748 268.982 134.748 274.762 134.748C273.515 135.054 273.515 135.054 272.243 135.367C272.035 135.469 271.828 135.571 271.614 135.676C270.12 135.716 268.623 135.731 267.127 135.734C266.308 135.739 265.488 135.743 264.643 135.748C262.098 135.674 260.166 135.446 257.762 135.057C257.762 134.955 257.762 134.853 257.762 134.748Z" fill="#63C9FF"/>
<path d="M410.487 44.7476C411.818 46.4729 412.388 47.7719 413.039 49.7476C413.232 50.3117 413.425 50.8759 413.624 51.4571C413.89 52.9829 413.89 52.9829 412.529 54.7476C412.079 54.7476 411.63 54.7476 411.168 54.7476C409.873 51.3196 409.124 48.2834 410.487 44.7476Z" fill="#46C1FF"/>
<path d="M150.762 134.754C150.762 135.214 150.762 135.675 150.762 136.149C146.05 138.328 140.705 137.99 135.762 136.847C138.006 135.406 139.936 135.19 142.528 135.015C143.246 134.963 143.964 134.911 144.704 134.857C146.727 134.76 148.737 134.734 150.762 134.754Z" fill="#38BCFF"/>
<path d="M127.034 62.7476C127.214 63.4901 127.394 64.2326 127.58 64.9976C128.3 64.8119 129.02 64.6263 129.762 64.4351C128.895 66.7049 127.971 68.9452 127.034 71.1851C126.674 70.6282 126.314 70.0713 125.944 69.4976C125.584 69.4976 125.224 69.4976 124.853 69.4976C124.673 70.2401 124.493 70.9826 124.307 71.7476C124.127 71.3763 123.947 71.0051 123.762 70.6226C124.257 69.2525 124.781 67.944 125.364 66.6147C125.523 66.2442 125.681 65.8737 125.844 65.4919C126.237 64.5754 126.635 63.6612 127.034 62.7476Z" fill="#4DC3FF"/>
<path d="M532.428 81.2701C532.208 81.488 531.988 81.7059 531.762 81.9304C532.422 82.3663 533.082 82.8021 533.762 83.2511C532.681 83.7113 531.597 84.1639 530.512 84.6131C529.908 84.8659 529.305 85.1187 528.684 85.3792C527.095 85.8925 527.095 85.8925 525.762 85.2322C525.982 84.7964 526.202 84.3605 526.428 83.9115C525.548 83.6936 524.668 83.4757 523.762 83.2511C524.701 82.7877 525.647 82.3359 526.595 81.8892C527.121 81.6364 527.647 81.3835 528.189 81.1231C529.935 80.5532 530.727 80.6557 532.428 81.2701Z" fill="#5FC9FF"/>
<path d="M517.428 35.7476C517.648 35.7476 517.868 35.7476 518.095 35.7476C518.14 38.1108 518.166 40.2095 517.678 42.5351C517.206 44.2789 517.206 44.2789 518.762 45.9476C518.741 47.5915 518.392 49.1181 518.095 50.7476C517.875 50.7476 517.655 50.7476 517.428 50.7476C517.208 49.7576 516.988 48.7676 516.762 47.7476C516.102 48.5396 515.442 49.3316 514.762 50.1476C515.248 46.9451 515.837 43.7666 516.47 40.5851C516.562 40.1175 516.655 39.65 516.75 39.1683C516.975 38.0279 517.202 36.8877 517.428 35.7476Z" fill="#63CBFF"/>
<path d="M318.762 134.748C323.712 134.851 328.662 134.955 333.762 135.062C333.564 135.27 333.366 135.478 333.162 135.691C331.437 135.709 329.712 135.721 327.987 135.731C327.502 135.736 327.017 135.741 326.517 135.747C323.681 135.759 321.429 135.637 318.762 135.062C318.762 134.958 318.762 134.855 318.762 134.748Z" fill="#5FC9FF"/>
<path d="M241.762 108.748C242.941 110.478 243.007 111.519 243.262 113.881C243.427 112.187 243.592 110.493 243.762 108.748C244.092 108.748 244.422 108.748 244.762 108.748C245.092 110.684 245.422 112.62 245.762 114.614C245.267 114.372 244.772 114.13 244.262 113.881C244.427 115.817 244.592 117.753 244.762 119.748C243.543 118.785 243.543 118.785 242.262 116.814C241.888 114.131 241.797 111.482 241.762 108.748Z" fill="#56D6FF"/>
<path d="M403.428 55.7476C404.349 58.1017 403.826 59.7775 403.137 62.1538C402.945 62.8273 402.753 63.5009 402.556 64.1948C402.404 64.7072 402.252 65.2196 402.095 65.7476C402.975 65.1288 403.855 64.5101 404.762 63.8726C404.686 64.9017 404.601 65.9303 404.512 66.9585C404.465 67.5313 404.419 68.1042 404.371 68.6943C404.28 69.1656 404.189 69.637 404.095 70.1226C403.655 70.3288 403.215 70.5351 402.762 70.7476C402.542 69.5101 402.322 68.2726 402.095 66.9976C401.655 67.4101 401.215 67.8226 400.762 68.2476C400.995 63.7216 401.466 59.9075 403.428 55.7476Z" fill="#75D0FF"/>
<path d="M160.624 126.748C160.808 128.206 160.808 128.206 160.624 130.081C158.904 132.484 157.36 133.819 154.762 134.748C157.818 126.748 157.818 126.748 160.624 126.748Z" fill="#42C0FF"/>
<path d="M291.162 115.748C291.69 115.954 292.218 116.16 292.762 116.373C292.762 118.435 292.762 120.498 292.762 122.623C292.234 122.623 291.706 122.623 291.162 122.623C291.162 123.654 291.162 124.685 291.162 125.748C290.37 125.541 289.578 125.335 288.762 125.123C288.877 124.607 288.993 124.091 289.112 123.56C289.447 121.929 289.723 120.317 289.962 118.677C290.362 116.373 290.362 116.373 291.162 115.748Z" fill="#3BBDFF"/>
<path d="M483.799 1.18099C484.73 1.25709 485.665 1.30978 486.6 1.34621C487.134 1.36809 487.667 1.38997 488.217 1.41251C488.772 1.43304 489.327 1.45357 489.898 1.47472C490.741 1.50854 490.741 1.50854 491.601 1.54305C492.988 1.5984 494.375 1.6517 495.762 1.70318C495.762 1.8755 495.762 2.04782 495.762 2.22537C487.347 2.48385 487.347 2.48385 478.762 2.74756C478.969 2.23059 479.177 1.71362 479.391 1.18099C481.245 0.566077 481.847 0.64131 483.799 1.18099Z" fill="#6CCFFF"/>
<path d="M112.428 121.748C112.868 122.903 113.308 124.058 113.762 125.248C113.322 125.248 112.882 125.248 112.428 125.248C112.648 126.403 112.868 127.558 113.095 128.748C111.555 128.055 110.015 127.362 108.428 126.648C108.868 126.417 109.308 126.186 109.762 125.948C109.762 125.255 109.762 124.562 109.762 123.848C109.102 123.617 108.442 123.386 107.762 123.148C109.527 122.125 110.358 121.748 112.428 121.748Z" fill="#65DAFF"/>
<path d="M298.882 113.748C299.124 113.748 299.366 113.748 299.615 113.748C299.615 115.926 299.615 118.104 299.615 120.348C300.099 120.348 300.583 120.348 301.081 120.348C301.036 119.382 301.036 119.382 300.989 118.398C301.076 116.281 301.336 115.511 302.547 113.748C302.606 114.91 302.649 116.072 302.684 117.235C302.71 117.882 302.735 118.53 302.762 119.197C302.547 120.948 302.547 120.948 301.439 122.08C301.079 122.3 300.719 122.52 300.348 122.748C298.625 120.631 298.725 119.73 298.79 117.235C298.804 116.583 298.817 115.931 298.83 115.259C298.847 114.76 298.865 114.262 298.882 113.748Z" fill="#62CAFF"/>
<path d="M289.017 93.7476C289.262 94.3526 289.508 94.9576 289.762 95.5809C289.024 96.4884 289.024 96.4884 288.271 97.4142C287.929 99.2283 287.929 99.2283 287.806 101.195C287.75 101.86 287.694 102.524 287.637 103.208C287.6 103.716 287.564 104.224 287.526 104.748C287.034 104.748 286.543 104.748 286.036 104.748C285.956 103.257 285.896 101.77 285.85 100.279C285.825 99.857 285.8 99.4351 285.774 99.0005C285.745 97.7651 285.745 97.7651 286.036 95.5809C287.538 94.3706 287.538 94.3706 289.017 93.7476Z" fill="#36BCFF"/>
<path d="M347.762 84.7476C348.28 84.7476 348.799 84.7476 349.333 84.7476C349.62 85.533 349.896 86.3205 350.167 87.1087C350.322 87.547 350.477 87.9852 350.637 88.4368C350.915 89.8053 350.722 90.6676 350.118 91.9698C349.859 91.9698 349.6 91.9698 349.333 91.9698C349.073 92.8864 348.814 93.8031 348.547 94.7476C348.288 94.7476 348.029 94.7476 347.762 94.7476C347.762 91.4476 347.762 88.1476 347.762 84.7476Z" fill="#93FCFF"/>
<path d="M301.762 88.8505C301.762 89.0274 301.762 89.2043 301.762 89.3866C301.282 89.4515 300.803 89.5165 300.309 89.5834C299.367 89.7182 299.367 89.7182 298.406 89.8556C297.784 89.9427 297.161 90.0298 296.519 90.1195C294.688 90.3949 294.688 90.3949 292.92 91.531C292.92 92.0617 292.92 92.5924 292.92 93.1393C291.341 94.0439 291.341 94.0439 289.762 94.7476C289.972 94.0328 290.183 93.318 290.393 92.6032C290.419 92.2383 290.445 91.8734 290.472 91.4975C291.235 90.0633 292.382 89.6834 294.064 89.1332C296.608 88.6127 299.165 88.7307 301.762 88.8505Z" fill="#6ECFFF"/>
<path d="M234.793 76.7476C236.748 78.3896 236.99 79.5966 237.67 81.8309C237.877 82.4995 238.084 83.1681 238.297 83.8569C238.45 84.3708 238.604 84.8847 238.762 85.4142C238.238 85.4142 237.714 85.4142 237.174 85.4142C237.174 86.5142 237.174 87.6142 237.174 88.7476C236.912 88.7476 236.65 88.7476 236.38 88.7476C235.265 84.6677 234.608 80.936 234.793 76.7476Z" fill="#4FF6FF"/>
<path d="M339.291 18.7476C341.242 21.4814 341.902 23.4471 341.738 26.7476C341.132 26.559 340.526 26.3704 339.902 26.1761C339.681 25.1532 339.465 24.1292 339.252 23.1047C339.132 22.5346 339.011 21.9644 338.887 21.377C338.679 19.8904 338.679 19.8904 339.291 18.7476Z" fill="#3BBDFF"/>
<path d="M110.762 124.748C110.762 125.4 110.762 126.052 110.762 126.724C107.562 128.185 105.384 128.952 101.762 128.7C103.984 126.088 107.274 124.748 110.762 124.748Z" fill="#37BDFF"/>
<path d="M110.762 99.7476C112.247 100.313 112.247 100.313 113.762 100.89C113.762 100.513 113.762 100.136 113.762 99.7476C114.752 99.9361 115.742 100.125 116.762 100.319C116.564 101.45 116.366 102.582 116.162 103.748C113.872 102.859 112.447 101.441 110.762 99.7476Z" fill="#7BF5FF"/>
<path d="M190.762 126.748C193.126 127.185 195.273 127.894 197.52 128.789C198.129 129.031 198.739 129.272 199.368 129.521C199.828 129.706 200.288 129.891 200.762 130.081C200.762 130.301 200.762 130.521 200.762 130.748C199.668 130.671 198.574 130.586 197.48 130.498C196.871 130.451 196.262 130.405 195.635 130.357C193.922 130.086 192.818 129.777 191.387 128.748C191.18 128.088 190.974 127.428 190.762 126.748Z" fill="#5CC6FF"/>
<path d="M250.262 121.748C251.94 123.4 252.175 125.056 252.762 127.286C252.143 127.286 251.524 127.286 250.887 127.286C250.68 128.098 250.474 128.911 250.262 129.748C250.055 128.935 249.849 128.123 249.637 127.286C249.224 127.286 248.812 127.286 248.387 127.286C248.18 126.068 247.974 124.849 247.762 123.594C248.174 124.406 248.587 125.218 249.012 126.055C249.424 126.055 249.837 126.055 250.262 126.055C250.262 124.634 250.262 123.212 250.262 121.748Z" fill="#85D6FF"/>
<path d="M244.789 113.748C245.941 114.145 245.941 114.145 247.167 115.02C247.725 116.89 247.725 116.89 247.762 118.838C246.907 120.032 246.907 120.032 245.978 120.748C244.906 118.31 244.672 116.432 244.789 113.748Z" fill="#3DBEFF"/>
<path d="M463.505 99.7476C464.879 101.374 464.986 102.25 465.357 104.474C465.462 105.068 465.566 105.662 465.673 106.273C465.83 107.998 465.83 107.998 465.248 110.748C464.673 108.479 464.098 106.21 463.505 103.873C462.93 104.099 462.354 104.326 461.762 104.56C462.851 100.521 462.851 100.521 463.505 99.7476Z" fill="#CAEDFF"/>
<path d="M292.762 93.7476C291.742 95.8293 291.405 95.9515 288.721 97.0476C288.944 99.5886 289.166 102.13 289.395 104.748C287.672 101.933 287.481 99.6001 288.048 96.4976C290.557 93.7476 290.557 93.7476 292.762 93.7476Z" fill="#C7ECFF"/>
<path d="M348.622 107.748C348.937 107.748 349.251 107.748 349.575 107.748C349.627 108.735 349.664 109.722 349.695 110.709C349.717 111.259 349.739 111.809 349.762 112.375C349.575 113.901 349.575 113.901 347.669 115.748C347.039 115.748 346.41 115.748 345.762 115.748C346.055 114.529 346.354 113.311 346.656 112.094C346.821 111.415 346.987 110.737 347.158 110.038C347.669 108.363 347.669 108.363 348.622 107.748Z" fill="#36BCFF"/>
<path d="M288.345 106.748C289.668 108.664 290.156 110.368 290.762 112.581C290.363 112.966 289.964 113.351 289.554 113.748C289.155 113.555 288.756 113.363 288.345 113.164C288.074 112 288.074 112 287.93 110.576C287.878 110.107 287.826 109.639 287.772 109.156C287.741 107.914 287.741 107.914 288.345 106.748Z" fill="#39BCFF"/>
<path d="M358.428 8.74756C358.868 8.94006 359.308 9.13256 359.762 9.33089C357.342 11.4484 354.922 13.5659 352.428 15.7476C352.208 15.3626 351.988 14.9776 351.762 14.5809C352.495 13.8252 353.232 13.0722 353.97 12.3205C354.38 11.9009 354.79 11.4813 355.212 11.049C356.428 9.91423 356.428 9.91423 358.428 8.74756Z" fill="#CDEEFF"/>
<path d="M454.539 108.748C455.089 108.748 455.639 108.748 456.206 108.748C456.553 109.919 456.553 109.919 456.762 111.248C456.395 111.66 456.028 112.073 455.651 112.498C455.467 112.085 455.284 111.673 455.095 111.248C454.579 111.866 454.579 111.866 454.053 112.498C452.873 113.748 452.873 113.748 451.762 113.748C452.523 111.904 453.332 110.269 454.539 108.748Z" fill="#5DC9FF"/>
<path d="M545.662 74.5785C547.231 74.8184 548.802 75.0185 550.374 75.1886C551.195 75.2794 552.016 75.3703 552.862 75.4639C553.489 75.5296 554.116 75.5953 554.762 75.663C554.762 76.0209 554.762 76.3788 554.762 76.7476C550.472 76.7476 546.182 76.7476 541.762 76.7476C541.762 76.0318 541.762 75.316 541.762 74.5785C543.441 73.1775 543.862 73.8075 545.662 74.5785Z" fill="#62CBFF"/>
<path d="M345.095 37.7476C345.315 37.7476 345.535 37.7476 345.762 37.7476C345.762 41.7076 345.762 45.6676 345.762 49.7476C344.296 46.9697 344.083 45.2093 343.762 42.1686C344.202 42.1686 344.642 42.1686 345.095 42.1686C345.095 40.7097 345.095 39.2507 345.095 37.7476Z" fill="#7FFFFF"/>
<path d="M318.387 5.74932C318.901 5.75226 319.414 5.7552 319.944 5.75823C320.331 5.76202 320.719 5.7658 321.119 5.76969C321.331 5.98482 321.543 6.19995 321.762 6.4216C317.625 6.58295 317.625 6.58295 313.405 6.74756C313.192 6.53243 312.98 6.3173 312.762 6.09565C314.687 5.8113 316.385 5.73439 318.387 5.74932Z" fill="#9BE5FF"/>
<path d="M350.797 94.7476C351.618 96.8688 352.353 98.8444 352.762 101.176C352.086 102.703 352.086 102.703 351.288 103.748C350.772 101.723 350.747 100.284 350.766 98.1627C350.77 97.5238 350.775 96.8849 350.779 96.2266C350.785 95.7385 350.791 95.2504 350.797 94.7476Z" fill="#39BCFF"/>
<path d="M349.095 90.7476C349.315 90.7476 349.535 90.7476 349.762 90.7476C349.762 93.3876 349.762 96.0276 349.762 98.7476C349.102 98.3704 348.442 97.9933 347.762 97.6047C347.856 96.783 347.954 95.9617 348.053 95.1404C348.108 94.683 348.162 94.2255 348.217 93.7543C348.428 92.4618 348.428 92.4618 349.095 90.7476Z" fill="#58F7FF"/>
<path d="M155.762 135.42C151.809 138.329 149.501 139.025 144.762 138.658C145.495 137.039 145.495 137.039 147.44 136.321C148.633 136 148.633 136 149.849 135.673C150.642 135.453 151.435 135.233 152.253 135.006C154.295 134.611 154.295 134.611 155.762 135.42Z" fill="#DCF3FF"/>
<path d="M417.671 17.7476C418.031 17.9456 418.391 18.1436 418.762 18.3476C417.97 19.2511 417.173 20.1503 416.375 21.0476C415.932 21.5487 415.489 22.0499 415.033 22.5663C413.853 23.7476 413.853 23.7476 412.762 23.7476C413.515 21.8213 414.357 20.7179 415.83 19.3976C416.174 19.0851 416.519 18.7726 416.874 18.4507C417.268 18.1026 417.268 18.1026 417.671 17.7476Z" fill="#D1EFFF"/>
<path d="M462.095 94.7476C462.535 94.7476 462.975 94.7476 463.428 94.7476C463.868 95.8476 464.308 96.9476 464.762 98.0809C463.882 98.6309 463.002 99.1809 462.095 99.7476C461.655 99.5642 461.215 99.3809 460.762 99.192C461.202 97.7253 461.642 96.2587 462.095 94.7476Z" fill="#3AC6FF"/>
<path d="M539.762 76.7476C539.762 77.1876 539.762 77.6276 539.762 78.0809C538.861 78.5456 537.956 79.0025 537.049 79.4559C536.294 79.8387 536.294 79.8387 535.523 80.2293C535.074 80.4003 534.625 80.5714 534.162 80.7476C533.7 80.5276 533.238 80.3076 532.762 80.0809C532.993 79.4209 533.224 78.7609 533.462 78.0809C535.682 77.2073 537.353 76.7476 539.762 76.7476Z" fill="#58CEFF"/>
<path d="M126.905 62.7476C127.093 63.4809 127.282 64.2142 127.476 64.9698C128.23 64.7864 128.985 64.6031 129.762 64.4142C128.762 67.1226 128.762 67.1226 127.476 67.7476C127.287 67.3809 127.099 67.0142 126.905 66.6364C126.527 66.6364 126.15 66.6364 125.762 66.6364C126.139 65.3531 126.516 64.0698 126.905 62.7476Z" fill="#65CBFF"/>
<path d="M343.762 31.7476C345.529 32.3031 345.529 32.3031 346.707 33.4142C346.78 35.1503 346.78 35.1503 346.707 36.7476C346.318 36.7476 345.929 36.7476 345.529 36.7476C343.762 33.6226 343.762 33.6226 343.762 31.7476Z" fill="#56EAFF"/>
<path d="M476.662 2.74756C477.355 2.96756 478.048 3.18756 478.762 3.41423C478.762 3.85423 478.762 4.29423 478.762 4.74756C475.297 5.73756 475.297 5.73756 471.762 6.74756C475.087 3.49756 475.087 3.49756 476.662 2.74756Z" fill="#59CFFF"/>
<path d="M408.962 46.7476C409.762 48.0203 409.762 48.0203 409.762 50.5657C409.212 51.5998 409.212 51.5998 408.562 52.4748C408.298 52.8948 408.034 53.3148 407.762 53.7476C407.982 51.2344 408.317 49.0708 408.962 46.7476Z" fill="#C8ECFF"/>
<path d="M407.762 15.7476C409.095 16.7476 409.095 16.7476 409.095 18.7476C409.975 18.7476 410.855 18.7476 411.762 18.7476C411.762 19.2426 411.762 19.7376 411.762 20.2476C410.882 20.4126 410.002 20.5776 409.095 20.7476C408.218 18.9377 407.762 17.6997 407.762 15.7476Z" fill="#87D7FF"/>
<path d="M232.616 63.7476C232.97 63.7476 233.324 63.7476 233.689 63.7476C234.043 66.7176 234.397 69.6876 234.762 72.7476C234.054 72.5496 233.345 72.3516 232.616 72.1476C231.2 69.1952 231.792 66.7157 232.616 63.7476Z" fill="#BBE8FF"/>
<path d="M257.762 5.7081C253.034 6.98886 253.034 6.98886 250.762 6.23547C253.008 4.3737 255.122 4.33048 257.762 5.7081Z" fill="#80D2FF"/>
<path d="M464.262 84.7476C464.509 84.7476 464.757 84.7476 465.012 84.7476C465.259 87.0576 465.507 89.3676 465.762 91.7476C464.772 91.1176 463.782 90.4876 462.762 89.8385C463.418 85.4635 463.418 85.4635 464.262 84.7476Z" fill="#98FFFF"/>
<path d="M402.035 66.7476C402.275 66.7476 402.515 66.7476 402.762 66.7476C402.762 67.9914 402.762 69.2353 402.762 70.5168C402.282 70.3391 401.802 70.1614 401.308 69.9783C401.068 71.2222 400.828 72.466 400.581 73.7476C400.341 73.7476 400.102 73.7476 399.854 73.7476C399.657 70.8744 399.544 69.1093 402.035 66.7476Z" fill="#43C0FF"/>
<path d="M159.095 124.748C160.47 125.873 160.47 125.873 161.762 127.414C161.595 129.248 161.595 129.248 161.095 130.748C160.655 129.868 160.215 128.988 159.762 128.081C159.102 128.521 158.442 128.961 157.762 129.414C158.202 127.874 158.642 126.334 159.095 124.748Z" fill="#65CBFF"/>
<path d="M176.352 55.8741C176.817 56.0055 177.282 56.1369 177.762 56.2723C176.992 56.2723 176.222 56.2723 175.428 56.2723C175.236 56.6307 175.043 56.989 174.845 57.3583C173.712 58.7923 172.801 59.1401 170.762 59.7476C173.289 55.5482 173.289 55.5482 176.352 55.8741Z" fill="#C9EDFF"/>
<path d="M343.095 31.7476C343.315 31.7476 343.535 31.7476 343.762 31.7476C343.762 33.3976 343.762 35.0476 343.762 36.7476C343.102 36.1976 342.442 35.6476 341.762 35.0809C341.762 34.3476 341.762 33.6142 341.762 32.8587C342.202 32.8587 342.642 32.8587 343.095 32.8587C343.095 32.492 343.095 32.1253 343.095 31.7476Z" fill="#56CFFF"/>
<path d="M306.762 13.7476C305.844 15.3858 304.925 16.591 303.19 17.7476C302.719 17.7476 302.247 17.7476 301.762 17.7476C304.003 13.7476 304.003 13.7476 306.762 13.7476Z" fill="#CFEFFF"/>
<path d="M276.762 135.028C275.428 135.705 275.428 135.705 273.012 135.748C272.269 135.734 271.527 135.72 270.762 135.705C271.428 135.028 271.428 135.028 272.637 134.795C274.221 134.68 275.251 134.781 276.762 135.028Z" fill="#D9F2FF"/>
<path d="M168.333 99.7476C168.805 99.9361 169.276 100.125 169.762 100.319C168.607 101.485 167.415 102.628 166.19 103.748C165.719 103.748 165.247 103.748 164.762 103.748C165.685 102.099 166.661 100.963 168.333 99.7476Z" fill="#D4F0FF"/>
<path d="M174.762 6.81664C174.762 7.46144 174.762 8.10624 174.762 8.77058C173.112 9.09299 171.462 9.41539 169.762 9.74756C169.762 9.10276 169.762 8.45795 169.762 7.79361C171.455 6.4704 172.893 6.75312 174.762 6.81664Z" fill="#64CDFF"/>
<path d="M190.762 126.748C192.119 126.948 192.119 126.948 193.619 127.548C194.369 129.198 194.369 129.198 194.762 130.748C193.083 130.098 193.083 130.098 191.333 129.148C191.145 128.356 190.956 127.564 190.762 126.748Z" fill="#4BCDFF"/>
<path d="M111.162 121.748C111.558 121.748 111.954 121.748 112.362 121.748C112.494 122.804 112.626 123.86 112.762 124.948C112.234 125.212 111.706 125.476 111.162 125.748C110.937 124.198 110.937 124.198 110.762 122.548C110.894 122.284 111.026 122.02 111.162 121.748Z" fill="#75FEFF"/>
<path d="M239.762 14.7476C239.762 16.7476 239.762 16.7476 238.662 17.8726C237.362 18.7476 237.362 18.7476 235.762 18.7476C236.412 17.1226 236.412 17.1226 237.362 15.4142C238.154 15.1942 238.946 14.9742 239.762 14.7476Z" fill="#39ABFF"/>
<path d="M468.962 8.74756C469.556 8.88899 470.15 9.03042 470.762 9.17613C470.071 10.2338 469.533 10.9109 468.362 11.7476C467.987 10.9708 467.987 10.9708 467.762 10.0333C468.158 9.60899 468.554 9.1847 468.962 8.74756Z" fill="#3EB5FF"/>
<path d="M27.7617 5.77058C27.7617 5.98552 27.7617 6.20045 27.7617 6.4219C26.318 6.52937 24.8742 6.63683 23.3867 6.74756C23.1805 6.53262 22.9742 6.31769 22.7617 6.09624C24.4547 5.65517 25.8926 5.74941 27.7617 5.77058Z" fill="#6FD1FF"/>
</svg>
